<svg width="16" height="20" viewBox="0 0 16 20" fill="none" xmlns="http://www.w3.org/2000/svg">
<path d="M12 8C12.0667 4.74706 6.69041 5.65882 8 0C8 0 4.39977 0.994118 5 5C5.20614 6.37647 5 8 5 8C4.49678 8.1 3.72717 6.5 4 5C4 5 2 6.32941 2 8C2 9.67059 3 12 3 12C0.93255 11.5647 1 9 1 9C1 9 0 10.7941 0 14C0 16.4941 3.3255 20 8 20C12.6745 20 16 16.1294 16 13C16 11.6294 15.0368 9.96471 14 9C14 9 14.3945 12.1294 13 12C13 12 14.2065 8.63529 13 7C13 7 12.6184 7.94706 12 8Z" fill="url(#paint0_linear_44_1387)"/>
<path d="M11.788 6C12.7721 3.71823 10.0105 3.40332 10.0061 2C10.0061 2 9.86904 3.01105 10.8971 4C11.7362 4.80111 11.788 6 11.788 6Z" fill="url(#paint1_linear_44_1387)"/>
<path d="M4 1C3.66515 1.44366 4.08084 3.27641 3.03297 4C3.03297 4 2.72365 1.98768 4 1Z" fill="url(#paint2_linear_44_1387)"/>
<path opacity="0.5" d="M1 9C0.543562 9.73769 0 11.0657 0 13C0 15.1608 3.21974 19 8 19C12.6692 19 16 15.9101 16 13C16 11.9486 15.6847 9.95261 15 9C14.9507 9.59829 14.4749 10.576 14 11C13.7533 11.2207 13.3392 11.0349 13 11C13.0123 10.971 13.6476 8.63222 13 7C12.7409 7.59829 12.5428 7.95934 12 8C12.0247 6.79762 10.9067 5.73769 10 5C8.7047 3.94283 7.46338 3.03791 8 0C7.09946 0.499541 5.56207 2.15958 6 5C6.22205 6.42311 5.0185 6.95353 5 7C4.74094 7.04647 5.24672 7.22073 5 7C4.66692 6.69214 4.01234 5.78997 4 5C3.49422 5.48792 3 7.04158 3 8C3 9.57414 2.99383 10.9826 3 11H4H3C1.58134 10.7096 1.1357 10.0165 1 9Z" fill="url(#paint3_linear_44_1387)"/>
<path d="M10.0102 2C9.91916 2.83425 10.4536 3.59669 10.8908 4C11.2915 4.37017 11.7349 5.44199 11.7713 6C12.4544 4.37569 11.4418 4.23757 10.8908 4C10.6585 3.90055 10.0285 2.85635 10.0102 2Z" fill="url(#paint4_radial_44_1387)"/>
<path d="M7.00411 1C5.02809 4.01935 7.32593 7.08968 6.00462 9C4.68331 10.9103 4.09493 9.19613 4.00565 8C4.00565 8 4.04646 11.4729 6.00462 13C7.96278 14.5271 1.79283 14.8639 1.00719 13C1.00719 13 0.546346 19 7.00411 19C13.4619 19 15 13 15 13C15 13 12.5674 15.5271 11.0021 14C11.0021 14 12.7034 12.0555 13.001 10C13.001 10 11.2465 10.1916 10.0026 10C10.0026 10 11.4132 6.94645 10.0026 6C8.1932 4.78645 6.37321 1.96387 7.00411 1Z" fill="url(#paint5_linear_44_1387)"/>
<path d="M7.99319 5C6.9555 6.34804 9.11742 9.58238 6.99433 10.954C5.81947 11.7134 4.9966 10.954 4.9966 10.954C4.9966 10.954 4.73115 12.683 5.99546 13.931C7.25977 15.1789 4.57037 17.1072 2 14.9233C2 14.9233 3.01042 19.7756 8.99206 18.8926C15.5939 17.9213 14.9852 12.9386 14.9852 12.9386C14.9852 12.9386 13.5363 15.2613 10.9898 13.931C10.9898 13.931 11.9887 12.2196 11.9887 10.954C11.9887 10.954 11.2314 11.5662 9.99092 10.954C9.99092 10.954 10.6946 8.41849 9.99092 7.97699C8.30318 6.9115 7.99319 5 7.99319 5Z" fill="url(#paint6_linear_44_1387)"/>
<path opacity="0.5" d="M12 8C12.0667 4.74706 6.69041 5.65882 8 0C8 0 4.39977 0.994118 5 5C5.20614 6.37647 5 8 5 8C4.49678 8.1 3.72717 6.5 4 5C4 5 2 6.32941 2 8C2 9.67059 3 12 3 12C0.93255 11.5647 1 9 1 9C1 9 0 10.7941 0 14C0 16.4941 3.3255 20 8 20C12.6745 20 16 16.1294 16 13C16 11.6294 15.0368 9.96471 14 9C14 9 14.3945 12.1294 13 12C13 12 14.2065 8.63529 13 7C13 7 12.6184 7.94706 12 8Z" fill="url(#paint7_radial_44_1387)"/>
<path opacity="0.5" d="M12 8C12.0667 4.74706 6.69041 5.65882 8 0C8 0 4.39977 0.994118 5 5C5.20614 6.37647 5 8 5 8C4.49678 8.1 3.72717 6.5 4 5C4 5 2 6.32941 2 8C2 9.67059 3 12 3 12C0.93255 11.5647 1 9 1 9C1 9 0 10.7941 0 14C0 16.4941 3.3255 20 8 20C12.6745 20 16 16.1294 16 13C16 11.6294 15.0368 9.96471 14 9C14 9 14.3945 12.1294 13 12C13 12 14.2065 8.63529 13 7C13 7 12.6184 7.94706 12 8Z" fill="url(#paint8_radial_44_1387)"/>
<path d="M0 12C0.138316 15.1903 2.62801 19 7 19C11.372 19 13.8617 14.5353 14 12C14 12 12.8462 13.7007 11 14C9.15378 14.2993 11.293 10.9424 10 9C10 9 8.62371 12.8758 7 13C5.37629 13.1242 4 10.2705 4 9C4 9 3.75344 11.1818 4 13C4.37887 15.7612 0 12 0 12Z" fill="url(#paint9_radial_44_1387)"/>
<path opacity="0.5" d="M12 8C12.0667 4.74706 6.69041 5.65882 8 0C8 0 4.39977 0.994118 5 5C5.20614 6.37647 5 8 5 8C4.49678 8.1 3.72717 6.5 4 5C4 5 2 6.32941 2 8C2 9.67059 3 12 3 12C0.93255 11.5647 1 9 1 9C1 9 0 10.7941 0 14C0 16.4941 3.3255 20 8 20C12.6745 20 16 16.1294 16 13C16 11.6294 15.0368 9.96471 14 9C14 9 14.3945 12.1294 13 12C13 12 14.2065 8.63529 13 7C13 7 12.6184 7.94706 12 8Z" fill="url(#paint10_radial_44_1387)"/>
<path opacity="0.5" d="M11.788 6C12.7721 3.71823 10.0105 3.40332 10.0061 2C10.0061 2 9.86904 3.01105 10.8971 4C11.7362 4.80111 11.788 6 11.788 6Z" fill="url(#paint11_radial_44_1387)"/>
<path d="M4 1C3.66909 1.44366 3.8366 2.84331 3.03297 4C3.03297 4 2.72365 1.98768 4 1Z" fill="url(#paint12_radial_44_1387)"/>
<path opacity="0.5" d="M4 1C3.66515 1.44366 4.08084 3.27641 3.03297 4C3.03297 4 2.72365 1.98768 4 1Z" fill="url(#paint13_radial_44_1387)"/>
<path opacity="0.5" d="M12 8C12.0667 4.74706 6.69041 5.65882 8 0C8 0 4.39977 0.994118 5 5C5.20614 6.37647 5 8 5 8C4.49678 8.1 3.72717 6.5 4 5C4 5 2 6.32941 2 8C2 9.67059 3 12 3 12C0.93255 11.5647 1 9 1 9C1 9 0 10.7941 0 14C0 16.4941 3.3255 20 8 20C12.6745 20 16 16.1294 16 13C16 11.6294 15.0368 9.96471 14 9C14 9 14.3945 12.1294 13 12C13 12 14.2065 8.63529 13 7C13 7 12.6184 7.94706 12 8Z" fill="url(#paint14_radial_44_1387)"/>
<path opacity="0.25" d="M12 8C12.0667 4.74706 6.69041 5.65882 8 0C8 0 4.39977 0.994118 5 5C5.20614 6.37647 5 8 5 8C4.49678 8.1 3.72717 6.5 4 5C4 5 2 6.32941 2 8C2 9.67059 3 12 3 12C0.93255 11.5647 1 9 1 9C1 9 0 10.7941 0 14C0 16.4941 3.3255 20 8 20C12.6745 20 16 16.1294 16 13C16 11.6294 15.0368 9.96471 14 9C14 9 14.3945 12.1294 13 12C13 12 14.2065 8.63529 13 7C13 7 12.6184 7.94706 12 8Z" fill="url(#paint15_radial_44_1387)"/>
<path opacity="0.25" d="M12 8C12.0667 4.74706 6.69041 5.65882 8 0C8 0 4.39977 0.994118 5 5C5.20614 6.37647 5 8 5 8C4.49678 8.1 3.72717 6.5 4 5C4 5 2 6.32941 2 8C2 9.67059 3 12 3 12C0.93255 11.5647 1 9 1 9C1 9 0 10.7941 0 14C0 16.4941 3.3255 20 8 20C12.6745 20 16 16.1294 16 13C16 11.6294 15.0368 9.96471 14 9C14 9 14.3945 12.1294 13 12C13 12 14.2065 8.63529 13 7C13 7 12.6184 7.94706 12 8Z" fill="url(#paint16_radial_44_1387)"/>
<path opacity="0.25" d="M12 8C12.0667 4.74706 6.69041 5.65882 8 0C8 0 4.39977 0.994118 5 5C5.20614 6.37647 5 8 5 8C4.49678 8.1 3.72717 6.5 4 5C4 5 2 6.32941 2 8C2 9.67059 3 12 3 12C0.93255 11.5647 1 9 1 9C1 9 0 10.7941 0 14C0 16.4941 3.3255 20 8 20C12.6745 20 16 16.1294 16 13C16 11.6294 15.0368 9.96471 14 9C14 9 14.3945 12.1294 13 12C13 12 14.2065 8.63529 13 7C13 7 12.6184 7.94706 12 8Z" fill="url(#paint17_radial_44_1387)"/>
<defs>
<linearGradient id="paint0_linear_44_1387" x1="9.0253" y1="20.5528" x2="5.52284" y2="-5.60833" gradientUnits="userSpaceOnUse">
<stop stop-color="#FF0000"/>
<stop offset="0.2317" stop-color="#FF1500"/>
<stop offset="0.7367" stop-color="#FF3D00"/>
<stop offset="0.9987" stop-color="#FF4C00"/>
</linearGradient>
<linearGradient id="paint1_linear_44_1387" x1="12.8761" y1="19.1097" x2="9.0992" y2="-5.31798" gradientUnits="userSpaceOnUse">
<stop stop-color="#FF0000"/>
<stop offset="0.2317" stop-color="#FF1500"/>
<stop offset="0.7367" stop-color="#FF3D00"/>
<stop offset="0.9987" stop-color="#FF4C00"/>
</linearGradient>
<linearGradient id="paint2_linear_44_1387" x1="5.22452" y1="18.513" x2="1.07932" y2="-4.65617" gradientUnits="userSpaceOnUse">
<stop stop-color="#FF0000"/>
<stop offset="0.2317" stop-color="#FF1500"/>
<stop offset="0.7367" stop-color="#FF3D00"/>
<stop offset="0.9987" stop-color="#FF4C00"/>
</linearGradient>
<linearGradient id="paint3_linear_44_1387" x1="9.07998" y1="15.4117" x2="1.66072" y2="-7.0885" gradientUnits="userSpaceOnUse">
<stop stop-color="#FF8000"/>
<stop offset="0.6388" stop-color="#FF5B00"/>
<stop offset="0.9987" stop-color="#FF4C00"/>
</linearGradient>
<radialGradient id="paint4_radial_44_1387" cx="0" cy="0" r="1" gradientUnits="userSpaceOnUse" gradientTransform="translate(12.0979 -1.72518) scale(9.23213 9.86248)">
<stop offset="0.00134333" stop-color="#FFED1C" stop-opacity="0.6"/>
<stop offset="0.9477" stop-color="#FFED1C" stop-opacity="0.0264782"/>
<stop offset="0.9914" stop-color="#FFED1C" stop-opacity="0"/>
</radialGradient>
<linearGradient id="paint5_linear_44_1387" x1="5.692" y1="0.589542" x2="8.43848" y2="16.3895" gradientUnits="userSpaceOnUse">
<stop stop-color="#FF8000"/>
<stop offset="0.022669" stop-color="#FE7F02" stop-opacity="0.9773"/>
<stop offset="0.6663" stop-color="#ED582A" stop-opacity="0.3337"/>
<stop offset="1" stop-color="#E74939" stop-opacity="0"/>
</linearGradient>
<linearGradient id="paint6_linear_44_1387" x1="8.2574" y1="18.3668" x2="8.87448" y2="7.04944" gradientUnits="userSpaceOnUse">
<stop stop-color="#FFBC47"/>
<stop offset="0.1869" stop-color="#FFB137" stop-opacity="0.8131"/>
<stop offset="0.7223" stop-color="#FF940F" stop-opacity="0.2777"/>
<stop offset="1" stop-color="#FF8900" stop-opacity="0"/>
</linearGradient>
<radialGradient id="paint7_radial_44_1387" cx="0" cy="0" r="1" gradientUnits="userSpaceOnUse" gradientTransform="translate(7.89404 15.3262) scale(8.37212 6.59409)">
<stop offset="0.00134333" stop-color="#FFBC47"/>
<stop offset="0.2941" stop-color="#FFBF4B" stop-opacity="0.7068"/>
<stop offset="0.5624" stop-color="#FEC656" stop-opacity="0.4382"/>
<stop offset="0.8201" stop-color="#FCD368" stop-opacity="0.1801"/>
<stop offset="1" stop-color="#FBE07A" stop-opacity="0"/>
</radialGradient>
<radialGradient id="paint8_radial_44_1387" cx="0" cy="0" r="1" gradientUnits="userSpaceOnUse" gradientTransform="translate(7.89404 14.9923) scale(8.11414 6.3909)">
<stop offset="0.00134333" stop-color="white"/>
<stop offset="1" stop-color="white" stop-opacity="0"/>
</radialGradient>
<radialGradient id="paint9_radial_44_1387" cx="0" cy="0" r="1" gradientUnits="userSpaceOnUse" gradientTransform="translate(3.89205 16.1007) scale(9.88683 10.8083)">
<stop offset="0.00134333" stop-color="#FFED1C" stop-opacity="0.6"/>
<stop offset="0.9477" stop-color="#FFED1C" stop-opacity="0.0264782"/>
<stop offset="0.9914" stop-color="#FFED1C" stop-opacity="0"/>
</radialGradient>
<radialGradient id="paint10_radial_44_1387" cx="0" cy="0" r="1" gradientUnits="userSpaceOnUse" gradientTransform="translate(7.89449 14.9914) rotate(92.9761) scale(3.05668 2.55703)">
<stop offset="0.00134333" stop-color="white"/>
<stop offset="1" stop-color="white" stop-opacity="0"/>
</radialGradient>
<radialGradient id="paint11_radial_44_1387" cx="0" cy="0" r="1" gradientUnits="userSpaceOnUse" gradientTransform="translate(9.83076 1.99476) scale(2.90807 3.25847)">
<stop offset="0.00134333" stop-color="#FFED1C"/>
<stop offset="0.1997" stop-color="#FFEE2B" stop-opacity="0.8013"/>
<stop offset="0.5839" stop-color="#FFF254" stop-opacity="0.4167"/>
<stop offset="1" stop-color="#FFF686" stop-opacity="0"/>
</radialGradient>
<radialGradient id="paint12_radial_44_1387" cx="0" cy="0" r="1" gradientUnits="userSpaceOnUse" gradientTransform="translate(3.26184 2.84252) rotate(-62.878) scale(2.36165 0.472218)">
<stop offset="0.00134333" stop-color="#FFED1C" stop-opacity="0.6"/>
<stop offset="0.9477" stop-color="#FFED1C" stop-opacity="0.0264782"/>
<stop offset="0.9914" stop-color="#FFED1C" stop-opacity="0"/>
</radialGradient>
<radialGradient id="paint13_radial_44_1387" cx="0" cy="0" r="1" gradientUnits="userSpaceOnUse" gradientTransform="translate(3.64725 0.863879) rotate(93.9047) scale(2.2637 0.704733)">
<stop offset="0.00134333" stop-color="#FFED1C"/>
<stop offset="0.1997" stop-color="#FFEE2B" stop-opacity="0.8013"/>
<stop offset="0.5839" stop-color="#FFF254" stop-opacity="0.4167"/>
<stop offset="1" stop-color="#FFF686" stop-opacity="0"/>
</radialGradient>
<radialGradient id="paint14_radial_44_1387" cx="0" cy="0" r="1" gradientUnits="userSpaceOnUse" gradientTransform="translate(8.84132 1.30217) scale(11.1576 10.8253)">
<stop offset="0.00134333" stop-color="#FF4C00"/>
<stop offset="0.135" stop-color="#FF5B0C" stop-opacity="0.8661"/>
<stop offset="0.3941" stop-color="#FF842C" stop-opacity="0.6067"/>
<stop offset="0.7491" stop-color="#FFC45F" stop-opacity="0.2512"/>
<stop offset="1" stop-color="#FFF686" stop-opacity="0"/>
</radialGradient>
<radialGradient id="paint15_radial_44_1387" cx="0" cy="0" r="1" gradientUnits="userSpaceOnUse" gradientTransform="translate(13.9161 10.0723) scale(5.92224 5.74588)">
<stop offset="0.00134333" stop-color="#FFED1C"/>
<stop offset="0.1997" stop-color="#FFEE2B" stop-opacity="0.8013"/>
<stop offset="0.5839" stop-color="#FFF254" stop-opacity="0.4167"/>
<stop offset="1" stop-color="#FFF686" stop-opacity="0"/>
</radialGradient>
<radialGradient id="paint16_radial_44_1387" cx="0" cy="0" r="1" gradientUnits="userSpaceOnUse" gradientTransform="translate(1.79307 12.1202) scale(6.31235 6.12438)">
<stop offset="0.00134333" stop-color="#FFED1C"/>
<stop offset="0.1997" stop-color="#FFEE2B" stop-opacity="0.8013"/>
<stop offset="0.5839" stop-color="#FFF254" stop-opacity="0.4167"/>
<stop offset="1" stop-color="#FFF686" stop-opacity="0"/>
</radialGradient>
<radialGradient id="paint17_radial_44_1387" cx="0" cy="0" r="1" gradientUnits="userSpaceOnUse" gradientTransform="translate(7.79981 10.8824) rotate(85.9912) scale(10.4921 6.57201)">
<stop stop-color="#FF4C00" stop-opacity="0"/>
<stop offset="0.9874" stop-color="#FF4C00" stop-opacity="0.9888"/>
<stop offset="0.9987" stop-color="#FF4C00"/>
</radialGradient>
</defs>
</svg>
