<svg width="20" height="20" viewBox="0 0 20 20" fill="none" xmlns="http://www.w3.org/2000/svg">
<path d="M10 20C15.5228 20 20 15.5228 20 10C20 4.47715 15.5228 0 10 0C4.47715 0 0 4.47715 0 10C0 15.5228 4.47715 20 10 20Z" fill="url(#paint0_radial_44_1447)"/>
<path opacity="0.5" d="M10 20C15.5228 20 20 15.5228 20 10C20 4.47715 15.5228 0 10 0C4.47715 0 0 4.47715 0 10C0 15.5228 4.47715 20 10 20Z" fill="url(#paint1_radial_44_1447)"/>
<path d="M10 20C15.5228 20 20 15.5228 20 10C20 4.47715 15.5228 0 10 0C4.47715 0 0 4.47715 0 10C0 15.5228 4.47715 20 10 20Z" fill="url(#paint2_radial_44_1447)"/>
<path d="M10 20C15.5228 20 20 15.5228 20 10C20 4.47715 15.5228 0 10 0C4.47715 0 0 4.47715 0 10C0 15.5228 4.47715 20 10 20Z" fill="url(#paint3_radial_44_1447)"/>
<path d="M16.922 14.0573C16.9283 14.0007 16.9158 13.119 16.922 13.0687C16.9095 12.8865 17.1036 13.1316 16.922 13.0687C16.8281 13.031 16.033 13.0436 15.9329 13.0687C13.8857 13.6406 12.1453 14.0573 9.99796 14.0573C7.85063 14.0573 6.11022 13.6469 4.06305 13.0687C3.96914 13.0436 3.16781 13.031 3.0739 13.0687C2.89861 13.1379 3.09268 12.8865 3.0739 13.0687C3.08016 13.1316 3.06138 13.9881 3.0739 14.0573C3.09894 14.1453 3.03634 13.9567 3.0739 14.0573C3.77507 15.7038 5.8285 19 9.99796 19C14.1612 19 16.2146 15.7038 16.922 14.0573C16.9032 14.139 16.9533 13.9693 16.922 14.0573Z" fill="url(#paint4_radial_44_1447)"/>
<path d="M10 18C11.6988 18 13.0058 17.6863 14 17C12.907 16.4967 11.5868 16 10 16C8.41317 16 7.093 16.4902 6 17C7.00082 17.6863 8.30123 18 10 18Z" fill="url(#paint5_radial_44_1447)"/>
<path d="M16.9248 14.0536C16.9373 13.9806 16.9248 13.1312 16.9248 13.0715C16.9123 12.879 17.1001 13.1445 16.9248 13.0715C16.8309 13.0316 16.0356 13.0449 15.9354 13.0715C13.8879 13.6756 12.1471 14.0536 9.99935 14.0536C7.85159 14.0536 6.11084 13.6822 4.06326 13.0715C3.96934 13.0449 3.16784 13.0316 3.07391 13.0715C2.89859 13.1445 3.0927 12.879 3.07391 13.0715C3.08018 13.1312 3.06765 13.9806 3.07391 14.0536C3.09896 14.1465 3.03634 13.954 3.07391 14.0536C3.35569 14.7573 4.32625 16.1569 5.05261 17C4.37008 16.137 4.53289 15.8254 6.04196 16.0179C7.54476 16.2104 9.99935 16.0179 9.99935 16.0179C9.99935 16.0179 12.4539 16.2104 13.9567 16.0179C15.4595 15.8254 15.6286 16.1436 14.9461 17C15.6787 16.1569 16.643 14.7573 16.9248 14.0536C16.8997 14.1465 16.9624 13.9474 16.9248 14.0536Z" fill="url(#paint6_linear_44_1447)"/>
<path d="M11 14C8.79185 14 6.11242 13.586 4 13C4.05106 13.5478 4.46392 13.879 5 14C6.79332 14.3949 8.14924 15 10 15C11.9975 15 14.0727 14.4586 16 14C16.2872 13.9299 16.9681 14.293 17 14V13C14.894 13.5796 13.2081 14 11 14Z" fill="url(#paint7_radial_44_1447)"/>
<path d="M6.55111 4.17735C5.80341 4.4569 4.56546 5.51052 4.427 6.12668C3.7693 5.80149 3.05059 5.84713 2.30289 6.12668C1.09133 6.57738 0.693898 7.08332 1.24083 8.07601C2.44546 10.2725 7.61317 11 7.61317 11C7.61317 11 10.9419 7.35419 9.73728 5.15201C9.19727 4.16503 7.76267 3.72664 6.55111 4.17735Z" fill="url(#paint8_radial_44_1447)"/>
<path opacity="0.5" d="M7.47737 4C9.6883 5.15886 9.6725 7.89381 8.59671 9C7.40964 10.2232 5.78962 10.2048 3 10C5.02544 10.8721 7.47737 11 7.47737 11C7.47737 11 11.007 7.2592 9.71606 5C9.29316 4.26254 8.45671 4.00585 7.47737 4Z" fill="url(#paint9_radial_44_1447)"/>
<path opacity="0.5" d="M6.55111 4.17735C5.80341 4.4569 4.56546 5.51052 4.427 6.12668C3.7693 5.80149 3.05059 5.84713 2.30289 6.12668C1.09133 6.57738 0.693898 7.08332 1.24083 8.07601C2.44546 10.2725 7.61317 11 7.61317 11C7.61317 11 10.9419 7.35419 9.73728 5.15201C9.19727 4.16503 7.76267 3.72664 6.55111 4.17735Z" fill="url(#paint10_radial_44_1447)"/>
<path opacity="0.5" d="M6.55111 4.17735C5.80341 4.4569 4.56546 5.51052 4.427 6.12668C3.7693 5.80149 3.05059 5.84713 2.30289 6.12668C1.09133 6.57738 0.693898 7.08332 1.24083 8.07601C2.44546 10.2725 7.61317 11 7.61317 11C7.61317 11 10.9419 7.35419 9.73728 5.15201C9.19727 4.16503 7.76267 3.72664 6.55111 4.17735Z" fill="url(#paint11_radial_44_1447)"/>
<path opacity="0.24" d="M3.87156 6.11463C4.29613 6.49716 3.58425 7.29874 2.95719 7.96179C2.33012 8.62483 1.55955 9.26789 1.12844 8.88537C0.703865 8.50284 1.41575 7.70126 2.04281 7.03821C2.66988 6.37517 3.44045 5.73211 3.87156 6.11463Z" fill="url(#paint12_radial_44_1447)"/>
<path opacity="0.24" d="M7.66355 4.02085C8.18688 4.16173 8.03067 4.47534 7.66355 5C7.29644 5.5198 5.87075 6.12003 5.33961 5.97915C4.80847 5.83827 4.9725 5.52466 5.33961 5C5.70672 4.4802 7.13241 3.87997 7.66355 4.02085Z" fill="url(#paint13_radial_44_1447)"/>
<path opacity="0.32" d="M6.27118 5.13517C7.75508 5.0342 9.54785 5.72418 8.54236 8.01274C7.94231 9.38138 6.99249 10.5425 5.13559 10.8903C6.42488 11.1371 7.40677 10.8903 7.40677 10.8903C7.40677 10.8903 11.0889 7.30032 9.67795 5.13517C9.03736 4.15356 6.54651 3.73285 5.13559 4.17598C4.25985 4.45083 4.16218 5.48856 4 6.09436C4 6.09436 5.18461 5.20809 6.27118 5.13517Z" fill="url(#paint14_linear_44_1447)"/>
<path d="M17.844 6.12614C17.1793 5.84664 16.5333 5.79531 15.9547 6.12614C15.8316 5.5044 14.7302 4.4561 14.0654 4.1766C12.9883 3.73169 11.7177 4.15317 11.2315 5.15137C10.1667 7.34741 13.1208 11 13.1208 11C13.1208 11 17.7239 10.2774 18.7887 8.07567C19.2688 7.08318 18.9212 6.57105 17.844 6.12614Z" fill="url(#paint15_radial_44_1447)"/>
<path opacity="0.5" d="M17.9132 6C18.2413 8.0922 16.5121 9.89953 14.9504 10C13.2246 10.1123 12.4698 9.79669 11 8C11.4528 9.79078 12.9752 11 12.9752 11C12.9752 11 17.7656 10.2813 18.9008 8C19.2814 7.23759 18.4841 6.58511 17.9132 6Z" fill="url(#paint16_radial_44_1447)"/>
<path opacity="0.5" d="M17.844 6.12614C17.1793 5.84664 16.5333 5.79531 15.9547 6.12614C15.8316 5.5044 14.7302 4.4561 14.0654 4.1766C12.9883 3.73169 11.7177 4.15317 11.2315 5.15137C10.1667 7.34741 13.1208 11 13.1208 11C13.1208 11 17.7239 10.2774 18.7887 8.07567C19.2688 7.08318 18.9212 6.57105 17.844 6.12614Z" fill="url(#paint17_radial_44_1447)"/>
<path opacity="0.5" d="M17.844 6.12614C17.1793 5.84664 16.5333 5.79531 15.9547 6.12614C15.8316 5.5044 14.7302 4.4561 14.0654 4.1766C12.9883 3.73169 11.7177 4.15317 11.2315 5.15137C10.1667 7.34741 13.1208 11 13.1208 11C13.1208 11 17.7239 10.2774 18.7887 8.07567C19.2688 7.08318 18.9212 6.57105 17.844 6.12614Z" fill="url(#paint18_radial_44_1447)"/>
<path opacity="0.24" d="M14.9995 5C14.9878 5.55218 13.8259 6.01807 12.9999 5.99946C12.174 5.98085 11.9943 5.55218 12.0001 5C12.0119 4.44782 13.1738 3.98193 13.9997 4.00054C14.8315 4.01915 15.0112 4.44782 14.9995 5Z" fill="url(#paint19_radial_44_1447)"/>
<path opacity="0.24" d="M17.9607 7.00102C18.1239 7.46792 17.7748 7.71237 16.9869 7.95249C16.199 8.19261 15.2026 7.46792 15.0393 7.00102C14.8761 6.53413 15.2252 6.28967 16.0131 6.04955C16.801 5.80276 17.7974 6.53413 17.9607 7.00102Z" fill="url(#paint20_radial_44_1447)"/>
<path opacity="0.32" d="M16.8468 6.20022C17.6947 6.94741 18.3083 8.0161 15.8774 9.08009C14.4201 9.7137 13.2437 9.85716 12 9.08009C12.4523 9.96476 12.9694 11 12.9694 11C12.9694 11 17.6988 10.4274 18.7855 8.12013C19.2754 7.07408 18.9154 5.71249 17.8161 5.24027C17.1377 4.94737 16.4679 4.89358 15.8774 5.24027C15.8774 5.23429 16.2312 5.65627 16.8468 6.20022Z" fill="url(#paint21_linear_44_1447)"/>
<defs>
<radialGradient id="paint0_radial_44_1447" cx="0" cy="0" r="1" gradientUnits="userSpaceOnUse" gradientTransform="translate(8.03248 5.94734) scale(12.0637)">
<stop stop-color="#FFE030"/>
<stop offset="1" stop-color="#FFB92E"/>
</radialGradient>
<radialGradient id="paint1_radial_44_1447" cx="0" cy="0" r="1" gradientUnits="userSpaceOnUse" gradientTransform="translate(8.03248 5.94734) scale(9.49105)">
<stop stop-color="#FFEA5F"/>
<stop offset="1" stop-color="#FFBC47" stop-opacity="0"/>
</radialGradient>
<radialGradient id="paint2_radial_44_1447" cx="0" cy="0" r="1" gradientUnits="userSpaceOnUse" gradientTransform="translate(4.44864 10.0877) rotate(32.7366) scale(5.29459 3.86447)">
<stop stop-color="#EB672A" stop-opacity="0.5"/>
<stop offset="0.4286" stop-color="#DC641B" stop-opacity="0.2846"/>
<stop offset="0.995" stop-color="#C25E00" stop-opacity="0"/>
</radialGradient>
<radialGradient id="paint3_radial_44_1447" cx="0" cy="0" r="1" gradientUnits="userSpaceOnUse" gradientTransform="translate(15.5573 10.0796) rotate(147.263) scale(5.29459 3.86447)">
<stop stop-color="#EB672A" stop-opacity="0.5"/>
<stop offset="0.4286" stop-color="#DC641B" stop-opacity="0.2846"/>
<stop offset="0.995" stop-color="#C25E00" stop-opacity="0"/>
</radialGradient>
<radialGradient id="paint4_radial_44_1447" cx="0" cy="0" r="1" gradientUnits="userSpaceOnUse" gradientTransform="translate(9.99899 16.0012) scale(5.38069 5.40471)">
<stop offset="0.00132565" stop-color="#7A4400"/>
<stop offset="1" stop-color="#643800"/>
</radialGradient>
<radialGradient id="paint5_radial_44_1447" cx="0" cy="0" r="1" gradientUnits="userSpaceOnUse" gradientTransform="translate(10.0834 17.2416) scale(4.45369 1.33672)">
<stop offset="0.2479" stop-color="#FF0000"/>
<stop offset="1" stop-color="#C20000"/>
</radialGradient>
<linearGradient id="paint6_linear_44_1447" x1="16.927" y1="15.0023" x2="3.1698" y2="15.0023" gradientUnits="userSpaceOnUse">
<stop offset="0.00132565" stop-color="#3C2200"/>
<stop offset="0.5" stop-color="#512D00"/>
<stop offset="1" stop-color="#3C2200"/>
</linearGradient>
<radialGradient id="paint7_radial_44_1447" cx="0" cy="0" r="1" gradientUnits="userSpaceOnUse" gradientTransform="translate(10.5026 13.9995) scale(11.8999 11.8766)">
<stop offset="0.00132565" stop-color="white"/>
<stop offset="1" stop-color="#A9BCBE"/>
</radialGradient>
<radialGradient id="paint8_radial_44_1447" cx="0" cy="0" r="1" gradientUnits="userSpaceOnUse" gradientTransform="translate(4.17725 7.00909) rotate(-47.4173) scale(6.35216 5.26328)">
<stop offset="0.2479" stop-color="#FF0000"/>
<stop offset="0.8639" stop-color="#C20000"/>
</radialGradient>
<radialGradient id="paint9_radial_44_1447" cx="0" cy="0" r="1" gradientUnits="userSpaceOnUse" gradientTransform="translate(3.83917 6.62625) rotate(-45.898) scale(5.60704 4.66018)">
<stop offset="0.2479" stop-color="#FF0000"/>
<stop offset="1" stop-color="#C20000"/>
</radialGradient>
<radialGradient id="paint10_radial_44_1447" cx="0" cy="0" r="1" gradientUnits="userSpaceOnUse" gradientTransform="translate(4.17725 7.00909) rotate(-47.4173) scale(6.35216 5.26328)">
<stop stop-color="white" stop-opacity="0.25"/>
<stop offset="1" stop-color="white" stop-opacity="0"/>
</radialGradient>
<radialGradient id="paint11_radial_44_1447" cx="0" cy="0" r="1" gradientUnits="userSpaceOnUse" gradientTransform="translate(7.57045 7.95636) rotate(-44.2014) scale(4.69418 2.36375)">
<stop stop-color="#BD2719" stop-opacity="0.25"/>
<stop offset="1" stop-color="#BD2719" stop-opacity="0"/>
</radialGradient>
<radialGradient id="paint12_radial_44_1447" cx="0" cy="0" r="1" gradientUnits="userSpaceOnUse" gradientTransform="translate(2.49918 7.51082) rotate(-45.0394) scale(1.80501 1.12198)">
<stop stop-color="white"/>
<stop offset="1" stop-color="white" stop-opacity="0"/>
</radialGradient>
<radialGradient id="paint13_radial_44_1447" cx="0" cy="0" r="1" gradientUnits="userSpaceOnUse" gradientTransform="translate(6.50058 5.00565) rotate(-46.6568) scale(1.3172 1.06925)">
<stop stop-color="white"/>
<stop offset="1" stop-color="white" stop-opacity="0"/>
</radialGradient>
<linearGradient id="paint14_linear_44_1447" x1="10.1446" y1="13.0879" x2="7.71765" y2="3.3643" gradientUnits="userSpaceOnUse">
<stop stop-color="#860805"/>
<stop offset="1" stop-color="#BD2719" stop-opacity="0"/>
</linearGradient>
<radialGradient id="paint15_radial_44_1447" cx="0" cy="0" r="1" gradientUnits="userSpaceOnUse" gradientTransform="translate(14.0253 6.13405) rotate(-4.73162) scale(6.45141 4.60304)">
<stop offset="0.2479" stop-color="#FF0000"/>
<stop offset="0.8639" stop-color="#C20000"/>
</radialGradient>
<radialGradient id="paint16_radial_44_1447" cx="0" cy="0" r="1" gradientUnits="userSpaceOnUse" gradientTransform="translate(14.2422 5.81093) rotate(-4.68671) scale(5.66364 4.00296)">
<stop offset="0.2479" stop-color="#FF0000"/>
<stop offset="1" stop-color="#C20000"/>
</radialGradient>
<radialGradient id="paint17_radial_44_1447" cx="0" cy="0" r="1" gradientUnits="userSpaceOnUse" gradientTransform="translate(14.0253 6.13405) rotate(-4.73162) scale(6.45141 4.60304)">
<stop stop-color="white" stop-opacity="0.25"/>
<stop offset="1" stop-color="white" stop-opacity="0"/>
</radialGradient>
<radialGradient id="paint18_radial_44_1447" cx="0" cy="0" r="1" gradientUnits="userSpaceOnUse" gradientTransform="translate(15.2467 8.78194) rotate(-1.93249) scale(4.71234 2.0915)">
<stop stop-color="#BD2719" stop-opacity="0.25"/>
<stop offset="1" stop-color="#BD2719" stop-opacity="0"/>
</radialGradient>
<radialGradient id="paint19_radial_44_1447" cx="0" cy="0" r="1" gradientUnits="userSpaceOnUse" gradientTransform="translate(13.503 5.00739) rotate(2.59524) scale(1.50668 0.991499)">
<stop stop-color="white"/>
<stop offset="1" stop-color="white" stop-opacity="0"/>
</radialGradient>
<radialGradient id="paint20_radial_44_1447" cx="0" cy="0" r="1" gradientUnits="userSpaceOnUse" gradientTransform="translate(16.5098 6.99609) rotate(-16.0163) scale(1.54703 0.929951)">
<stop stop-color="white"/>
<stop offset="1" stop-color="white" stop-opacity="0"/>
</radialGradient>
<linearGradient id="paint21_linear_44_1447" x1="12.5112" y1="13.8965" x2="17.3128" y2="4.649" gradientUnits="userSpaceOnUse">
<stop stop-color="#860805"/>
<stop offset="1" stop-color="#BD2719" stop-opacity="0"/>
</linearGradient>
</defs>
</svg>
