<svg width="21" height="21" viewBox="0 0 21 21" fill="none" xmlns="http://www.w3.org/2000/svg">
<path d="M10.2297 19.7426C15.6356 19.7426 20.018 15.3602 20.018 9.95432C20.018 4.54839 15.6356 0.166016 10.2297 0.166016C4.82378 0.166016 0.441406 4.54839 0.441406 9.95432C0.441406 15.3602 4.82378 19.7426 10.2297 19.7426Z" fill="url(#paint0_radial_44_1575)"/>
<path opacity="0.5" d="M10.2297 19.7426C15.6356 19.7426 20.018 15.3602 20.018 9.95432C20.018 4.54839 15.6356 0.166016 10.2297 0.166016C4.82378 0.166016 0.441406 4.54839 0.441406 9.95432C0.441406 15.3602 4.82378 19.7426 10.2297 19.7426Z" fill="url(#paint1_radial_44_1575)"/>
<path d="M10.2297 19.7426C15.6356 19.7426 20.018 15.3602 20.018 9.95432C20.018 4.54839 15.6356 0.166016 10.2297 0.166016C4.82378 0.166016 0.441406 4.54839 0.441406 9.95432C0.441406 15.3602 4.82378 19.7426 10.2297 19.7426Z" fill="url(#paint2_radial_44_1575)"/>
<path d="M8.07625 4.02678C8.07625 3.63525 7.65285 3.3894 6.92442 3.3894C6.30525 3.3894 4.944 3.73086 4.00614 4.93732C3.83314 5.1604 4.0972 5.28332 4.2702 5.13764C4.84839 4.64595 6.39176 4.01768 7.59822 4.1497C8.08081 4.20434 8.07625 4.02678 8.07625 4.02678Z" fill="url(#paint3_linear_44_1575)"/>
<path d="M12.3831 4.02678C12.3831 3.63525 12.8065 3.3894 13.5349 3.3894C14.1541 3.3894 15.5153 3.73086 16.4532 4.93732C16.6262 5.1604 16.3621 5.28332 16.1891 5.13764C15.6109 4.64595 14.0676 4.01768 12.8611 4.1497C12.3785 4.20434 12.3831 4.02678 12.3831 4.02678Z" fill="url(#paint4_linear_44_1575)"/>
<path d="M10.2295 16.369C5.08953 16.369 3.44145 11.1288 5.00758 11.9483C7.11093 13.0501 8.44031 13.3688 10.2295 13.3688C12.0142 13.3688 13.3481 13.0501 15.4515 11.9483C17.0176 11.1334 15.3695 16.369 10.2295 16.369Z" fill="#643800"/>
<path d="M13.321 14.2246C13.321 13.9105 13.0205 13.6783 12.7155 13.7694C11.9871 13.9879 11.1585 14.1154 10.2297 14.1154C9.30096 14.1154 8.47237 13.9833 7.74394 13.7694C7.44346 13.6783 7.13843 13.9105 7.13843 14.2246V17.0063C7.13843 18.7136 8.52245 20.1659 10.2297 20.1659C11.937 20.1659 13.321 18.7136 13.321 17.0063V16.3007V14.2246Z" fill="url(#paint5_radial_44_1575)"/>
<path d="M13.321 14.2246C13.321 13.9105 13.0205 13.6783 12.7155 13.7694C11.9871 13.9879 11.1585 14.1154 10.2297 14.1154C9.30096 14.1154 8.47237 13.9833 7.74394 13.7694C7.44346 13.6783 7.13843 13.9105 7.13843 14.2246V17.0063C7.13843 18.7136 8.52245 20.1659 10.2297 20.1659C11.937 20.1659 13.321 18.7136 13.321 17.0063V16.3007V14.2246Z" fill="url(#paint6_radial_44_1575)"/>
<path d="M15.4515 11.9527C13.3482 13.0545 12.0188 13.3731 10.2296 13.3731C8.44493 13.3731 7.11099 13.0545 5.00764 11.9527C4.46132 11.6659 4.30653 12.1166 4.55237 12.8223C4.55237 12.8086 4.63432 12.0529 5.37186 12.5719C5.37186 12.5719 5.37641 12.5719 5.37641 12.5764C6.47361 13.4187 8.08527 14.1152 10.2296 14.1152C12.3739 14.1152 13.9856 13.4187 15.0828 12.5764C15.0828 12.5764 15.0873 12.5764 15.0873 12.5719C15.8249 12.0483 15.9068 12.8041 15.9068 12.8223C16.1526 12.1166 15.9933 11.6659 15.4515 11.9527Z" fill="url(#paint7_linear_44_1575)"/>
<path opacity="0.5" d="M10.2297 14.12C9.30096 14.12 8.47237 13.988 7.74394 13.774C7.44346 13.6829 7.13843 13.9151 7.13843 14.2293C7.13843 14.7756 7.13843 15.3993 7.13843 15.3993C7.13843 15.3993 7.17485 14.6572 10.2297 14.6572C13.28 14.6572 13.321 15.3993 13.321 15.3993C13.321 15.3993 13.321 14.7756 13.321 14.2293C13.321 13.9151 13.0205 13.6829 12.7155 13.774C11.9871 13.988 11.1585 14.12 10.2297 14.12Z" fill="#366E0D"/>
<path opacity="0.24" d="M10.2296 14.12C10.1203 14.12 10.0156 14.1109 9.91089 14.1063C9.91544 17.835 10.0566 19.1371 10.2296 19.1371C10.4026 19.1371 10.5437 17.8532 10.5483 14.1063C10.4436 14.1063 10.3388 14.12 10.2296 14.12Z" fill="url(#paint8_linear_44_1575)"/>
<path d="M6.77909 10.5233V11.147H6.40122V10.5233C5.65458 10.455 5.16744 10.0043 5.12646 9.34415H5.70921C5.72287 9.78121 6.05977 10.0498 6.60154 10.0498C7.1342 10.0498 7.45744 9.79031 7.45744 9.41244C7.45744 8.98904 7.19794 8.85701 6.74267 8.72043L6.17358 8.55653C5.61816 8.39263 5.1811 8.08305 5.1811 7.47299C5.1811 6.82195 5.65913 6.35757 6.40122 6.29384V5.66101H6.77909V6.29839C7.45744 6.37578 7.90361 6.8174 7.93548 7.46388H7.36639C7.34363 7.03137 7.02494 6.75821 6.52869 6.75821C6.04156 6.75821 5.74563 7.01772 5.74563 7.41835C5.74563 7.78257 6.03245 7.94647 6.39667 8.05118L7.10233 8.25605C7.80345 8.46092 8.04019 8.86611 8.04019 9.36691C8.04929 10.0271 7.53484 10.4596 6.77909 10.5233Z" fill="url(#paint9_linear_44_1575)"/>
<path d="M14.0584 10.5233V11.147H13.6805V10.5233C12.9339 10.455 12.4467 10.0043 12.4058 9.34415H12.9885C13.0022 9.78121 13.3391 10.0498 13.8808 10.0498C14.4135 10.0498 14.7367 9.79031 14.7367 9.41244C14.7367 8.98904 14.4772 8.85701 14.022 8.72043L13.4529 8.55653C12.8975 8.39263 12.4604 8.08305 12.4604 7.47299C12.4604 6.82195 12.9384 6.35757 13.6805 6.29384V5.66101H14.0584V6.29839C14.7367 6.37578 15.1829 6.8174 15.2148 7.46388H14.6457C14.6229 7.03137 14.3042 6.75821 13.808 6.75821C13.3209 6.75821 13.0249 7.01772 13.0249 7.41835C13.0249 7.78257 13.3117 7.94647 13.676 8.05118L14.3816 8.25605C15.0873 8.46092 15.3286 8.86156 15.3286 9.36236C15.3286 10.0271 14.8141 10.4596 14.0584 10.5233Z" fill="url(#paint10_linear_44_1575)"/>
<path d="M14.0583 6.49874C14.6639 6.56704 15.0827 6.93125 15.192 7.46847H15.2193C15.1829 6.82199 14.7413 6.38037 14.0629 6.30298V6.49874H14.0583Z" fill="url(#paint11_linear_44_1575)"/>
<path d="M14.386 8.25161L13.6803 8.04674C13.3525 7.95569 13.0839 7.81 13.0384 7.50952C13.0339 7.54139 13.0293 7.57781 13.0293 7.60968C13.0293 7.9739 13.3161 8.13779 13.6803 8.24251L14.386 8.44738C15.0279 8.63404 15.2783 8.9937 15.3193 9.43987C15.3193 9.41255 15.3284 9.38979 15.3284 9.36247C15.3284 8.86167 15.0871 8.46104 14.386 8.25161Z" fill="url(#paint12_linear_44_1575)"/>
<path d="M13.6806 6.48971V6.29395C12.9385 6.35768 12.4604 6.82206 12.4604 7.47309C12.4604 7.50952 12.465 7.53683 12.4696 7.57325C12.5196 6.9723 12.9795 6.5489 13.6806 6.48971Z" fill="url(#paint13_linear_44_1575)"/>
<path d="M12.9885 9.54016C13.0022 9.97722 13.3391 10.2458 13.8808 10.2458C14.4135 10.2458 14.7367 9.98633 14.7367 9.60845C14.7367 9.56748 14.7322 9.53106 14.7276 9.49464C14.6821 9.82243 14.3725 10.0455 13.8808 10.0455C13.3391 10.0455 13.0022 9.7769 12.9885 9.33984H12.4058C12.4103 9.40813 12.424 9.47187 12.4376 9.53561H12.9885V9.54016Z" fill="url(#paint14_linear_44_1575)"/>
<path d="M14.0585 5.66113H13.6807V5.8569H14.0585V5.66113Z" fill="url(#paint15_linear_44_1575)"/>
<path d="M6.77905 6.49874C7.38456 6.56704 7.80341 6.93125 7.91267 7.46847H7.93999C7.90357 6.82199 7.46196 6.38037 6.78361 6.30298V6.49874H6.77905Z" fill="url(#paint16_linear_44_1575)"/>
<path d="M7.10671 8.25161L6.40104 8.04674C6.07324 7.95569 5.80463 7.81 5.75911 7.50952C5.75455 7.54139 5.75 7.57781 5.75 7.60968C5.75 7.9739 6.03682 8.13779 6.40104 8.24251L7.10671 8.44738C7.74864 8.63404 7.99904 8.9937 8.04001 9.43987C8.04001 9.41255 8.04912 9.38979 8.04912 9.36247C8.04912 8.86167 7.80782 8.46104 7.10671 8.25161Z" fill="url(#paint17_linear_44_1575)"/>
<path d="M6.40128 6.48971V6.29395C5.65919 6.35768 5.18115 6.82206 5.18115 7.47309C5.18115 7.50952 5.18571 7.53683 5.19026 7.57325C5.24034 6.9723 5.70016 6.5489 6.40128 6.48971Z" fill="url(#paint18_linear_44_1575)"/>
<path d="M5.70921 9.54016C5.72287 9.97722 6.05977 10.2458 6.60154 10.2458C7.13421 10.2458 7.45745 9.98633 7.45745 9.60845C7.45745 9.56748 7.45289 9.53106 7.44834 9.49464C7.40282 9.82243 7.09323 10.0455 6.60154 10.0455C6.05977 10.0455 5.72287 9.7769 5.70921 9.33984H5.12646C5.13102 9.40813 5.14468 9.47187 5.15833 9.53561H5.70921V9.54016Z" fill="url(#paint19_linear_44_1575)"/>
<path d="M6.77924 5.66113H6.40137V5.8569H6.77924V5.66113Z" fill="url(#paint20_linear_44_1575)"/>
<path d="M10.3941 18.9868V19.5332H10.0663V18.9868C9.41075 18.9277 8.98735 18.5316 8.95093 17.9534H9.46083C9.47449 18.3358 9.76586 18.5725 10.2393 18.5725C10.7083 18.5725 10.9905 18.3449 10.9905 18.0126C10.9905 17.6392 10.7629 17.5254 10.3668 17.4071L9.87057 17.2614C9.38343 17.1157 9.00101 16.8471 9.00101 16.3144C9.00101 15.7453 9.41986 15.3356 10.0709 15.2809V14.7346H10.3987V15.2946C10.9905 15.3583 11.3821 15.7499 11.4139 16.3144H10.9131C10.8949 15.9365 10.6127 15.6952 10.1802 15.6952C9.7522 15.6952 9.49725 15.9229 9.49725 16.2689C9.49725 16.5876 9.74765 16.7287 10.0663 16.8198L10.6855 17.0019C11.2956 17.184 11.505 17.5345 11.505 17.9716C11.505 18.5543 11.0543 18.9322 10.3941 18.9868Z" fill="url(#paint21_linear_44_1575)"/>
<path d="M10.3942 15.4633C10.9269 15.5225 11.2911 15.8412 11.3821 16.3101H11.4049C11.373 15.7456 10.9861 15.354 10.3896 15.2903V15.4633H10.3942Z" fill="url(#paint22_linear_44_1575)"/>
<path d="M10.6856 17.0019L10.0664 16.8198C9.77958 16.7378 9.54739 16.6103 9.50642 16.3508C9.50187 16.3781 9.49731 16.41 9.49731 16.4419C9.49731 16.7606 9.74771 16.9017 10.0664 16.9928L10.6856 17.1749C11.2455 17.3388 11.4686 17.6529 11.5005 18.0399C11.5005 18.0171 11.5051 17.9944 11.5051 17.9716C11.5051 17.5345 11.2956 17.1794 10.6856 17.0019Z" fill="url(#paint23_linear_44_1575)"/>
<path d="M10.0662 15.4586V15.2856C9.41974 15.3403 8.99634 15.7455 8.99634 16.3191C8.99634 16.351 9.00089 16.3783 9.00544 16.4056C9.04642 15.882 9.45161 15.5087 10.0662 15.4586Z" fill="url(#paint24_linear_44_1575)"/>
<path d="M9.46083 18.1265C9.47449 18.509 9.76586 18.7457 10.2393 18.7457C10.7083 18.7457 10.9905 18.5181 10.9905 18.1857C10.9905 18.1493 10.986 18.1174 10.9814 18.0856C10.9405 18.3724 10.6719 18.5681 10.2393 18.5681C9.76586 18.5681 9.46994 18.336 9.46083 17.949H8.95093C8.95548 18.0082 8.96459 18.0673 8.97824 18.122H9.46083V18.1265Z" fill="url(#paint25_linear_44_1575)"/>
<path d="M10.3942 14.7347H10.0664V14.9077H10.3942V14.7347Z" fill="url(#paint26_linear_44_1575)"/>
<defs>
<radialGradient id="paint0_radial_44_1575" cx="0" cy="0" r="1" gradientUnits="userSpaceOnUse" gradientTransform="translate(8.30384 5.98745) scale(11.8083 11.8083)">
<stop stop-color="#FFDF30"/>
<stop offset="1" stop-color="#FFB82E"/>
</radialGradient>
<radialGradient id="paint1_radial_44_1575" cx="0" cy="0" r="1" gradientUnits="userSpaceOnUse" gradientTransform="translate(8.30384 5.98745) scale(9.29012)">
<stop stop-color="#FFE95F"/>
<stop offset="1" stop-color="#FFBB47" stop-opacity="0"/>
</radialGradient>
<radialGradient id="paint2_radial_44_1575" cx="0" cy="0" r="1" gradientUnits="userSpaceOnUse" gradientTransform="translate(10.2603 17.8888) scale(5.07502 1.83056)">
<stop stop-color="#7A4400" stop-opacity="0.5"/>
<stop offset="0.6008" stop-color="#894D00" stop-opacity="0.1981"/>
<stop offset="0.995" stop-color="#965500" stop-opacity="0"/>
</radialGradient>
<linearGradient id="paint3_linear_44_1575" x1="6.0122" y1="4.68242" x2="6.0122" y2="3.65101" gradientUnits="userSpaceOnUse">
<stop offset="0.00132565" stop-color="#3C2200"/>
<stop offset="1" stop-color="#7A4400"/>
</linearGradient>
<linearGradient id="paint4_linear_44_1575" x1="14.4471" y1="4.68242" x2="14.4471" y2="3.65101" gradientUnits="userSpaceOnUse">
<stop offset="0.00132565" stop-color="#3C2200"/>
<stop offset="1" stop-color="#7A4400"/>
</linearGradient>
<radialGradient id="paint5_radial_44_1575" cx="0" cy="0" r="1" gradientUnits="userSpaceOnUse" gradientTransform="translate(10.2296 16.0656) scale(3.14947 5.86433)">
<stop stop-color="#7CEB00"/>
<stop offset="1" stop-color="#2F9200"/>
</radialGradient>
<radialGradient id="paint6_radial_44_1575" cx="0" cy="0" r="1" gradientUnits="userSpaceOnUse" gradientTransform="translate(11.16 17.9668) rotate(-39.9023) scale(3.24394 1.96722)">
<stop stop-color="white" stop-opacity="0.33"/>
<stop offset="1" stop-color="white" stop-opacity="0"/>
</radialGradient>
<linearGradient id="paint7_linear_44_1575" x1="10.2295" y1="10.0187" x2="10.2295" y2="14.0067" gradientUnits="userSpaceOnUse">
<stop offset="0.00132565" stop-color="#3C2200"/>
<stop offset="1" stop-color="#512D00"/>
</linearGradient>
<linearGradient id="paint8_linear_44_1575" x1="10.2293" y1="26.4896" x2="10.2293" y2="12.3943" gradientUnits="userSpaceOnUse">
<stop stop-color="#7CEB00"/>
<stop offset="1" stop-color="#2F9200"/>
</linearGradient>
<linearGradient id="paint9_linear_44_1575" x1="6.58753" y1="-0.611209" x2="6.58753" y2="18.3198" gradientUnits="userSpaceOnUse">
<stop offset="0.00132565" stop-color="#3C2200"/>
<stop offset="1" stop-color="#7A4400"/>
</linearGradient>
<linearGradient id="paint10_linear_44_1575" x1="13.8671" y1="-0.611209" x2="13.8671" y2="18.3198" gradientUnits="userSpaceOnUse">
<stop offset="0.00132565" stop-color="#3C2200"/>
<stop offset="1" stop-color="#7A4400"/>
</linearGradient>
<linearGradient id="paint11_linear_44_1575" x1="14.6382" y1="4.72432" x2="14.6382" y2="8.14181" gradientUnits="userSpaceOnUse">
<stop offset="0.00132565" stop-color="#3C2200"/>
<stop offset="1" stop-color="#512D00"/>
</linearGradient>
<linearGradient id="paint12_linear_44_1575" x1="14.1789" y1="4.9034" x2="14.1789" y2="10.5607" gradientUnits="userSpaceOnUse">
<stop offset="0.00132565" stop-color="#3C2200"/>
<stop offset="1" stop-color="#512D00"/>
</linearGradient>
<linearGradient id="paint13_linear_44_1575" x1="13.0722" y1="4.56536" x2="13.0722" y2="8.31276" gradientUnits="userSpaceOnUse">
<stop offset="0.00132565" stop-color="#3C2200"/>
<stop offset="1" stop-color="#512D00"/>
</linearGradient>
<linearGradient id="paint14_linear_44_1575" x1="13.5725" y1="8.12359" x2="13.5725" y2="10.7699" gradientUnits="userSpaceOnUse">
<stop offset="0.00132565" stop-color="#3C2200"/>
<stop offset="1" stop-color="#512D00"/>
</linearGradient>
<linearGradient id="paint15_linear_44_1575" x1="13.8708" y1="5.3971" x2="13.8708" y2="5.97323" gradientUnits="userSpaceOnUse">
<stop offset="0.00132565" stop-color="#3C2200"/>
<stop offset="1" stop-color="#512D00"/>
</linearGradient>
<linearGradient id="paint16_linear_44_1575" x1="7.35866" y1="4.72432" x2="7.35866" y2="8.14181" gradientUnits="userSpaceOnUse">
<stop offset="0.00132565" stop-color="#3C2200"/>
<stop offset="1" stop-color="#512D00"/>
</linearGradient>
<linearGradient id="paint17_linear_44_1575" x1="6.89933" y1="4.9034" x2="6.89933" y2="10.5607" gradientUnits="userSpaceOnUse">
<stop offset="0.00132565" stop-color="#3C2200"/>
<stop offset="1" stop-color="#512D00"/>
</linearGradient>
<linearGradient id="paint18_linear_44_1575" x1="5.79259" y1="4.56536" x2="5.79259" y2="8.31276" gradientUnits="userSpaceOnUse">
<stop offset="0.00132565" stop-color="#3C2200"/>
<stop offset="1" stop-color="#512D00"/>
</linearGradient>
<linearGradient id="paint19_linear_44_1575" x1="6.29291" y1="8.12359" x2="6.29291" y2="10.7699" gradientUnits="userSpaceOnUse">
<stop offset="0.00132565" stop-color="#3C2200"/>
<stop offset="1" stop-color="#512D00"/>
</linearGradient>
<linearGradient id="paint20_linear_44_1575" x1="6.59124" y1="5.3971" x2="6.59124" y2="5.97323" gradientUnits="userSpaceOnUse">
<stop offset="0.00132565" stop-color="#3C2200"/>
<stop offset="1" stop-color="#512D00"/>
</linearGradient>
<linearGradient id="paint21_linear_44_1575" x1="10.2279" y1="8.24417" x2="10.2279" y2="22.3175" gradientUnits="userSpaceOnUse">
<stop offset="0.00132565" stop-color="#3C2200"/>
<stop offset="1" stop-color="#7A4400"/>
</linearGradient>
<linearGradient id="paint22_linear_44_1575" x1="10.9028" y1="13.9129" x2="10.9028" y2="16.9036" gradientUnits="userSpaceOnUse">
<stop offset="0.00132565" stop-color="#3C2200"/>
<stop offset="1" stop-color="#512D00"/>
</linearGradient>
<linearGradient id="paint23_linear_44_1575" x1="10.501" y1="14.0693" x2="10.501" y2="19.0201" gradientUnits="userSpaceOnUse">
<stop offset="0.00132565" stop-color="#3C2200"/>
<stop offset="1" stop-color="#512D00"/>
</linearGradient>
<linearGradient id="paint24_linear_44_1575" x1="9.53206" y1="13.7737" x2="9.53206" y2="17.0531" gradientUnits="userSpaceOnUse">
<stop offset="0.00132565" stop-color="#3C2200"/>
<stop offset="1" stop-color="#512D00"/>
</linearGradient>
<linearGradient id="paint25_linear_44_1575" x1="9.97006" y1="16.8874" x2="9.97006" y2="19.2033" gradientUnits="userSpaceOnUse">
<stop offset="0.00132565" stop-color="#3C2200"/>
<stop offset="1" stop-color="#512D00"/>
</linearGradient>
<linearGradient id="paint26_linear_44_1575" x1="10.2311" y1="14.5015" x2="10.2311" y2="15.0057" gradientUnits="userSpaceOnUse">
<stop offset="0.00132565" stop-color="#3C2200"/>
<stop offset="1" stop-color="#512D00"/>
</linearGradient>
</defs>
</svg>
