<svg width="0" height="0" xmlns="http://www.w3.org/2000/svg">
    <symbol id="all" viewBox="0 0 26 26">
        <path d="M21.3895 1.22811C20.8922 0.730603 20.1461 0.730603 19.6488 1.22811C19.1513 1.72563 19.1513 2.47189 19.6488 2.9694C21.8869 5.20821 23.1303 8.19331 23.1303 11.4271C23.1303 14.661 21.8869 17.6461 19.6488 19.8848C17.4106 22.1236 14.4263 23.3674 11.1934 23.3674C8.45792 23.3674 5.72237 22.3724 3.60856 20.6311L5.22501 18.8898C6.96583 20.258 9.07958 20.8799 11.0691 20.8799C13.5559 20.8799 15.9184 20.0092 17.7836 18.1436C21.5138 14.4122 21.5138 8.31765 17.7836 4.7107C14.0533 0.979354 7.9605 0.979354 4.35461 4.7107C0.997367 8.06889 0.624342 13.4171 3.48422 17.1485L0.873025 19.8848C0.375658 20.3823 0.375658 21.1286 0.873025 21.6261C3.60856 24.3625 7.2145 25.855 11.0691 25.855C14.9237 25.855 18.5297 24.3625 21.2652 21.6261C24.0007 18.8898 25.4928 15.2828 25.4928 11.4271C25.6172 7.57139 24.125 3.96443 21.3895 1.22811ZM6.21975 6.452C7.5875 5.08384 9.45267 4.33756 11.1934 4.33756C13.0586 4.33756 14.7993 5.08384 16.1672 6.452C18.9027 9.18831 18.9027 13.6659 16.1672 16.4022C13.4316 19.1386 8.95525 19.1386 6.21975 16.4022C3.48422 13.6659 3.48422 9.18831 6.21975 6.452Z"/>
    </symbol>
    <symbol id="production" viewBox="0 0 29 20">
        <path fill-rule="evenodd" clip-rule="evenodd" d="M3.07031 5.125C3.07031 3.92233 4.00586 3 5.14418 3H14.7465C15.8847 3 16.8203 3.92233 16.8203 5.125V6.12808C16.8199 6.14642 16.8199 6.16475 16.8203 6.18317V14.625C16.8203 15.7329 15.8554 16.75 14.7465 16.75H5.14418C4.03527 16.75 3.07031 15.7329 3.07031 14.625V5.125ZM19.3203 6.95867V14.625C19.3203 17.0171 17.3307 19.25 14.7465 19.25H5.14418C2.5599 19.25 0.570312 17.0171 0.570312 14.625V5.125C0.570312 2.57771 2.5893 0.5 5.14418 0.5H14.7465C17.0007 0.5 18.8378 2.11758 19.2389 4.24808L24.2428 1.96598C24.2801 1.94897 24.3181 1.93382 24.357 1.92056C25.1919 1.63496 26.0814 1.71267 26.796 2.12004C27.5227 2.53435 28.0703 3.30438 28.0703 4.277V15.4269C28.0703 16.4332 27.4577 17.2134 26.7588 17.6214C26.0599 18.0294 25.102 18.1712 24.2176 17.7264L21.9266 16.6816C21.2985 16.3951 21.0216 15.6537 21.308 15.0256C21.5945 14.3975 22.3359 14.1205 22.964 14.4069L25.2801 15.4633C25.3001 15.4723 25.3198 15.482 25.3392 15.4921C25.3483 15.4968 25.3605 15.5012 25.3854 15.4997C25.4146 15.4979 25.4559 15.4872 25.4985 15.4623C25.5366 15.4401 25.5596 15.416 25.5703 15.4015V4.29967C25.5669 4.29733 25.5628 4.29475 25.5579 4.29192C25.5049 4.26175 25.3818 4.22567 25.2106 4.27233L19.3203 6.95867Z"/>
    </symbol>
    <symbol id="chat" viewBox="0 0 25 25">
        <path fill-rule="evenodd" clip-rule="evenodd" d="M0.921875 5.99403C0.921875 3.22906 3.21245 0.938477 5.97743 0.938477H19.6997C22.4646 0.938477 24.7552 3.22906 24.7552 5.99403V14.7811C24.7552 17.546 22.4646 19.8367 19.6997 19.8367H10.7923C9.66597 19.8367 8.69963 20.1422 7.95148 20.7033L7.9387 20.7128L2.6424 24.5646C2.31286 24.8042 1.87672 24.8388 1.51361 24.6539C1.15052 24.469 0.921875 24.096 0.921875 23.6885V5.99403ZM3.08854 21.561L6.65818 18.9649C7.83477 18.085 9.27329 17.67 10.7923 17.67H19.6997C21.268 17.67 22.5885 16.3494 22.5885 14.7811V5.99403C22.5885 4.42568 21.268 3.10514 19.6997 3.10514H5.97743C4.40907 3.10514 3.08854 4.42568 3.08854 5.99403V21.561Z"/>
        <path fill-rule="evenodd" clip-rule="evenodd" d="M6.33984 7.43831C6.33984 6.84 6.82487 6.35498 7.42318 6.35498H18.2565C18.8548 6.35498 19.3398 6.84 19.3398 7.43831C19.3398 8.0366 18.8548 8.52165 18.2565 8.52165H7.42318C6.82487 8.52165 6.33984 8.0366 6.33984 7.43831Z"/>
        <path fill-rule="evenodd" clip-rule="evenodd" d="M6.33984 12.8551C6.33984 12.2568 6.82487 11.7717 7.42318 11.7717H12.8398C13.4381 11.7717 13.9232 12.2568 13.9232 12.8551C13.9232 13.4534 13.4381 13.9384 12.8398 13.9384H7.42318C6.82487 13.9384 6.33984 13.4534 6.33984 12.8551Z"/>
    </symbol>
    <symbol id="photography" viewBox="0 0 26 22">
        <path d="M21.2422 21.23H4.99219C2.61719 21.23 0.617188 19.355 0.617188 16.855V7.72998C0.617188 5.35498 2.49219 3.47998 4.99219 3.47998H6.49219L7.61719 1.97998C8.36719 0.97998 9.61719 0.35498 10.8672 0.35498H15.2422C16.6172 0.35498 17.7422 0.97998 18.6172 1.97998L19.7422 3.47998H21.2422C23.7422 3.47998 25.6172 5.35498 25.6172 7.72998V16.98C25.6172 19.355 23.7422 21.23 21.2422 21.23ZM4.99219 5.97998C3.99219 5.97998 3.11719 6.72998 3.11719 7.72998V16.98C3.11719 17.98 3.99219 18.855 4.99219 18.855H21.3672C22.3672 18.855 23.2422 17.98 23.2422 16.98V7.72998C23.2422 6.72998 22.3672 5.85498 21.3672 5.85498H19.3672C18.9922 5.85498 18.6172 5.72998 18.3672 5.35498L16.8672 3.47998C16.3672 3.10498 15.8672 2.85498 15.3672 2.85498H10.8672C10.3672 2.85498 9.86719 3.10498 9.49219 3.47998L7.99219 5.47998C7.74219 5.72998 7.36719 5.97998 6.99219 5.97998H4.99219Z"/>
        <path d="M13.1172 17.2295C10.1172 17.2295 7.74219 14.8545 7.74219 11.8545C7.74219 8.85449 10.1172 6.47949 13.1172 6.47949C16.1172 6.47949 18.4922 8.85449 18.4922 11.8545C18.4922 14.7295 16.1172 17.2295 13.1172 17.2295ZM13.1172 8.97949C11.4922 8.97949 10.2422 10.2295 10.2422 11.8545C10.2422 13.4795 11.4922 14.7295 13.1172 14.7295C14.7422 14.7295 15.9922 13.4795 15.9922 11.8545C15.9922 10.2295 14.7422 8.97949 13.1172 8.97949Z"/>
    </symbol>
    <symbol id="pr" viewBox="0 0 24 25">
        <path d="M13.4531 9.37476V21.6248C13.4531 23.4998 14.9531 24.8748 16.7031 24.8748H19.8281C21.7031 24.8748 23.0781 23.3748 23.0781 21.6248V9.37476C23.0781 7.49976 21.5781 6.12476 19.8281 6.12476H16.7031C14.9531 6.12476 13.4531 7.62476 13.4531 9.37476ZM19.8281 8.62476C20.3281 8.62476 20.5781 8.99976 20.5781 9.37476V21.6248C20.5781 22.1248 20.2031 22.3748 19.8281 22.3748H16.7031C16.2031 22.3748 15.9531 21.9998 15.9531 21.6248V9.37476C15.9531 8.87476 16.3281 8.62476 16.7031 8.62476H19.8281Z"/>
        <path d="M10.5781 21.75V3.25C10.5781 1.5 9.07812 0 7.32812 0H4.20312C2.45312 0 0.953125 1.5 0.953125 3.25V21.625C0.953125 23.5 2.45312 25 4.20312 25H7.32812C9.07812 25 10.5781 23.5 10.5781 21.75ZM4.20312 22.5C3.82812 22.5 3.45312 22.125 3.45312 21.75V3.25C3.45312 2.875 3.82812 2.5 4.20312 2.5H7.32812C7.82812 2.5 8.07812 2.875 8.07812 3.25V21.625C8.07812 22.125 7.70312 22.375 7.32812 22.375H4.20312V22.5Z"/>
    </symbol>
    <symbol id="video" viewBox="0 0 29 20">
        <path fill-rule="evenodd" clip-rule="evenodd" d="M3.14844 5.125C3.14844 3.92233 4.08399 3 5.2223 3H14.8246C15.9629 3 16.8984 3.92233 16.8984 5.125V6.12808C16.898 6.14642 16.898 6.16475 16.8984 6.18317V14.625C16.8984 15.7329 15.9335 16.75 14.8246 16.75H5.2223C4.1134 16.75 3.14844 15.7329 3.14844 14.625V5.125ZM19.3984 6.95867V14.625C19.3984 17.0171 17.4089 19.25 14.8246 19.25H5.2223C2.63803 19.25 0.648438 17.0171 0.648438 14.625V5.125C0.648438 2.57771 2.66743 0.5 5.2223 0.5H14.8246C17.0789 0.5 18.9159 2.11758 19.317 4.24808L24.3209 1.96598C24.3582 1.94897 24.3963 1.93382 24.4351 1.92056C25.27 1.63496 26.1595 1.71267 26.8741 2.12004C27.6009 2.53435 28.1484 3.30438 28.1484 4.277V15.4269C28.1484 16.4332 27.5359 17.2134 26.8369 17.6214C26.138 18.0294 25.1801 18.1712 24.2958 17.7264L22.0048 16.6816C21.3766 16.3951 21.0997 15.6537 21.3861 15.0256C21.6726 14.3975 22.414 14.1205 23.0421 14.4069L25.3583 15.4633C25.3783 15.4723 25.3979 15.482 25.4174 15.4921C25.4264 15.4968 25.4386 15.5012 25.4635 15.4997C25.4928 15.4979 25.534 15.4872 25.5766 15.4623C25.6148 15.4401 25.6377 15.416 25.6484 15.4015V4.29967C25.645 4.29733 25.6409 4.29475 25.636 4.29192C25.583 4.26175 25.4599 4.22567 25.2888 4.27233L19.3984 6.95867Z"/>
    </symbol>
    <symbol id="photosets" viewBox="0 0 26 22">
        <path d="M21.2422 21.23H4.99219C2.61719 21.23 0.617188 19.355 0.617188 16.855V7.72998C0.617188 5.35498 2.49219 3.47998 4.99219 3.47998H6.49219L7.61719 1.97998C8.36719 0.97998 9.61719 0.35498 10.8672 0.35498H15.2422C16.6172 0.35498 17.7422 0.97998 18.6172 1.97998L19.7422 3.47998H21.2422C23.7422 3.47998 25.6172 5.35498 25.6172 7.72998V16.98C25.6172 19.355 23.7422 21.23 21.2422 21.23ZM4.99219 5.97998C3.99219 5.97998 3.11719 6.72998 3.11719 7.72998V16.98C3.11719 17.98 3.99219 18.855 4.99219 18.855H21.3672C22.3672 18.855 23.2422 17.98 23.2422 16.98V7.72998C23.2422 6.72998 22.3672 5.85498 21.3672 5.85498H19.3672C18.9922 5.85498 18.6172 5.72998 18.3672 5.35498L16.8672 3.47998C16.3672 3.10498 15.8672 2.85498 15.3672 2.85498H10.8672C10.3672 2.85498 9.86719 3.10498 9.49219 3.47998L7.99219 5.47998C7.74219 5.72998 7.36719 5.97998 6.99219 5.97998H4.99219Z"/>
        <path d="M13.1172 17.2295C10.1172 17.2295 7.74219 14.8545 7.74219 11.8545C7.74219 8.85449 10.1172 6.47949 13.1172 6.47949C16.1172 6.47949 18.4922 8.85449 18.4922 11.8545C18.4922 14.7295 16.1172 17.2295 13.1172 17.2295ZM13.1172 8.97949C11.4922 8.97949 10.2422 10.2295 10.2422 11.8545C10.2422 13.4795 11.4922 14.7295 13.1172 14.7295C14.7422 14.7295 15.9922 13.4795 15.9922 11.8545C15.9922 10.2295 14.7422 8.97949 13.1172 8.97949Z"/>
    </symbol>
    <symbol id="promo" viewBox="0 0 28 25">
        <path fill-rule="evenodd" clip-rule="evenodd" d="M21.0622 0.434917C22.1901 1.05211 23 2.27627 23 3.75019V16.4999C23 19.4838 19.6957 21.2517 17.2661 19.5173C17.2387 19.4977 17.2121 19.477 17.1863 19.4552L15.853 18.3302C15.8339 18.3142 15.8153 18.2975 15.7973 18.2803C14.7723 17.3046 13.4946 16.6967 12.0909 16.4726V21.3748C12.0909 23.3582 10.6408 24.9997 8.65908 24.9997C6.63655 24.9997 5.22727 23.1887 5.22727 21.3748V16.2344C2.53186 15.6198 0.5 13.0677 0.5 10.1251C0.5 8.468 1.08485 6.87192 2.33573 5.72566C3.34663 4.69445 4.73271 3.87517 6.47728 3.87517H10.8041C12.7219 3.75868 14.5007 3.1023 15.8432 2.05162L17.1375 0.838308C17.1626 0.814783 17.1887 0.792308 17.2156 0.770933C18.4293 -0.191883 19.9162 -0.19215 21.0622 0.434917ZM18.8033 2.70339L17.514 3.91214C17.4889 3.93566 17.4628 3.95814 17.4359 3.97951C15.6396 5.40448 13.3263 6.23483 10.9124 6.37308C10.8886 6.3745 10.8647 6.37517 10.8409 6.37517H6.47728C5.57165 6.37517 4.78558 6.79033 4.10191 7.49533C4.08257 7.51525 4.06257 7.53458 4.04194 7.55317C3.37506 8.15492 3 9.04592 3 10.1251C3 12.242 4.6782 13.8749 6.47728 13.8749C7.16763 13.8749 7.72725 14.4346 7.72725 15.1249V21.3748C7.72725 22.061 8.25742 22.4998 8.65908 22.4998C9.10158 22.4998 9.59092 22.1414 9.59092 21.3748V15.1249C9.59092 14.4346 10.1506 13.8749 10.8409 13.8749C13.3006 13.8749 15.6673 14.7195 17.4928 16.4428L18.7529 17.506C19.4736 17.9827 20.5 17.5 20.5 16.4999V3.75019C20.5 3.22416 20.219 2.82335 19.8621 2.62807C19.5338 2.44847 19.1558 2.44258 18.8033 2.70339Z"/>
        <path fill-rule="evenodd" clip-rule="evenodd" d="M26.75 6.25C27.4403 6.25 28 6.80967 28 7.5V12.5C28 13.1903 27.4403 13.75 26.75 13.75C26.0597 13.75 25.5 13.1903 25.5 12.5V7.5C25.5 6.80967 26.0597 6.25 26.75 6.25Z"/>
    </symbol>
    <symbol id="marketing" viewBox="0 0 26 29">
        <path d="M19.2812 0.75H8.03125C6.03125 0.75 4.03125 1.88532 3.03125 3.65137C2.65625 4.28211 2.90625 5.03899 3.53125 5.41743C4.15625 5.79588 4.90625 5.54357 5.28125 4.91284C5.78125 3.90367 6.90625 3.27293 8.03125 3.27293H19.2812C21.0312 3.27293 22.5312 4.7867 22.5312 6.55275V21.3119V22.4472C22.5312 24.2133 21.0312 25.7271 19.2812 25.7271H8.03125C6.28125 25.7271 4.78125 24.2133 4.78125 22.4472V22.0688H5.78125C6.53125 22.0688 7.03125 21.5642 7.03125 20.8073C7.03125 20.0504 6.53125 19.5458 5.78125 19.5458H1.28125C0.53125 19.5458 0.03125 20.0504 0.03125 20.8073C0.03125 21.5642 0.53125 22.0688 1.28125 22.0688H2.28125V22.4472C2.28125 25.6009 4.90625 28.25 8.03125 28.25H19.2812C22.4062 28.25 25.0312 25.6009 25.0312 22.4472V21.3119V6.55275C25.0312 3.39908 22.4062 0.75 19.2812 0.75Z"/>
        <path d="M1.37053 9.5H2.44197V17C2.44197 17.75 2.97767 18.25 3.78125 18.25C4.58483 18.25 5.12053 17.75 5.12053 17V9.5H6.192C6.9955 9.5 7.53125 9 7.53125 8.25C7.53125 7.5 6.9955 7 6.192 7H1.37053C0.566967 7 0.03125 7.5 0.03125 8.25C0.03125 9 0.566967 9.5 1.37053 9.5Z"/>
    </symbol>
</svg>