<svg width="0" height="0" xmlns="http://www.w3.org/2000/svg">
    <symbol id="home" viewBox="0 0 25 25">
        <path fill-rule="evenodd" clip-rule="evenodd" d="M13.4286 2.79425C12.8415 2.40192 12.1585 2.40192 11.5714 2.79425L11.5502 2.80818L3.82626 7.74583C2.97277 8.29033 2.5 9.22992 2.5 10.1714V20.7201C2.5 21.7159 3.28658 22.5 4.27239 22.5H20.7276C21.7134 22.5 22.5 21.7159 22.5 20.7201V10.1714C22.5 9.19775 21.9849 8.32475 21.1494 7.73033L13.4498 2.80818L13.4286 2.79425ZM14.8062 0.708083C13.3841 -0.236033 11.6158 -0.236025 10.1937 0.708092L2.4807 5.63882C2.48088 5.63872 2.48053 5.63893 2.4807 5.63882C0.871825 6.6655 0 8.41992 0 10.1714V20.7201C0 23.0907 1.89999 25 4.27239 25H20.7276C23.1 25 25 23.0907 25 20.7201V10.1714C25 8.23542 23.9563 6.64575 22.565 5.66944C22.5503 5.65913 22.5354 5.64913 22.5202 5.63946L14.8062 0.708083Z"/>
    </symbol>
    <symbol id="alarm" viewBox="0 0 25 25">
        <path fill-rule="evenodd" clip-rule="evenodd" d="M12.4512 2.5C8.26015 2.5 4.94249 5.74677 4.94249 9.59675V13.7097C4.94249 13.958 4.86857 14.2007 4.73017 14.4067L2.69928 17.4309L2.68583 17.4506C2.45213 17.7846 2.47773 18.0896 2.59834 18.309C2.72369 18.5371 2.99769 18.75 3.43907 18.75H21.5902C21.9083 18.75 22.2166 18.5606 22.3887 18.254C22.5531 17.9611 22.5283 17.6947 22.374 17.4923C22.3659 17.4818 22.3579 17.471 22.3501 17.4601L20.1923 14.4359C20.0411 14.2239 19.9598 13.9701 19.9598 13.7097V9.59675C19.9598 7.66475 19.1038 5.81802 17.8266 4.59139C16.375 3.32147 14.5097 2.5 12.4512 2.5ZM2.44338 9.59675C2.44338 4.25324 6.99544 0 12.4512 0C15.207 0 17.6501 1.10684 19.4959 2.73068C19.5084 2.74165 19.5206 2.75287 19.5326 2.76432C21.292 4.44102 22.4589 6.941 22.4589 9.59675V13.3093L24.3739 15.9932C25.2205 17.1181 25.1303 18.4757 24.5678 19.4779C24.01 20.4717 22.9221 21.25 21.5902 21.25H3.43907C0.737304 21.25 -0.997935 18.3724 0.630826 16.0278L2.44338 13.3288V9.59675ZM7.50642 23.75C7.50642 23.0597 8.06589 22.5 8.75598 22.5H16.2533C16.9434 22.5 17.5029 23.0597 17.5029 23.75C17.5029 24.4403 16.9434 25 16.2533 25H8.75598C8.06589 25 7.50642 24.4403 7.50642 23.75Z"/>
    </symbol>
    <symbol id="chz" viewBox="0 0 19 27">
        <path d="M9.5 11C14.7635 11 19 8.52809 19 5.4382C19 2.34831 14.7635 0 9.5 0C4.10811 0 0 2.47191 0 5.5618C0 8.65168 4.10811 11 9.5 11ZM9.5 2.47191C13.4797 2.47191 16.4324 4.07865 16.4324 5.5618C16.4324 7.04494 13.4797 8.65168 9.5 8.65168C5.52027 8.52809 2.56757 6.92135 2.56757 5.5618C2.56757 4.20225 5.52027 2.47191 9.5 2.47191Z"/>
        <path d="M17.8645 11.1662C17.2246 10.821 16.4568 11.0512 16.0729 11.5115C15.433 12.6624 12.8735 13.6982 9.54617 13.6982C6.09086 13.6982 3.65935 12.6624 2.89151 11.5115C2.50758 11.0512 1.73975 10.821 1.09988 11.1662C0.460008 11.5115 0.332034 12.202 0.715957 12.7775C2.12368 14.734 5.57897 16 9.54617 16C13.5134 16 16.9687 14.734 18.3764 12.7775C18.6324 12.202 18.5044 11.5115 17.8645 11.1662Z"/>
        <path d="M17.9032 17.1931C17.2666 16.8498 16.5027 17.0787 16.1207 17.5365C15.3568 18.5665 12.9377 19.711 9.50001 19.711C6.18967 19.711 3.64325 18.681 2.87932 17.5365C2.49736 16.9642 1.73342 16.8498 1.09682 17.1931C0.460213 17.5365 0.332891 18.2232 0.714854 18.7954C2.11538 20.7411 5.55306 22 9.50001 22C13.447 22 16.8846 20.7411 18.2851 18.7954C18.6671 18.2232 18.5398 17.5365 17.9032 17.1931Z"/>
        <path d="M17.8645 22.1931C17.2246 21.8498 16.4568 22.0787 16.0729 22.5365C15.433 23.681 12.8735 24.711 9.54617 24.711C6.21884 24.711 3.65935 23.681 2.89151 22.5365C2.50758 21.9642 1.73975 21.8498 1.09988 22.1931C0.460008 22.5365 0.332034 23.2232 0.715957 23.7954C1.9957 25.7411 5.45099 27 9.54617 27C13.5134 27 16.9687 25.7411 18.3764 23.7954C18.6324 23.2232 18.5044 22.5365 17.8645 22.1931Z"/>
    </symbol>
    <symbol id="message" viewBox="0 0 27 23">
        <path fill-rule="evenodd" clip-rule="evenodd" d="M5.66668 2.55556C3.98379 2.55556 2.45455 4.12416 2.45455 6.35362V16.6464C2.45455 18.8758 3.98379 20.4444 5.66668 20.4444H21.4512C23.1394 20.4444 24.6365 18.8809 24.5414 16.7045C24.5405 16.6851 24.5401 16.6657 24.5401 16.6464V6.35362C24.5401 4.12416 23.0108 2.55556 21.3279 2.55556H5.66668ZM0 6.35362C0 2.94327 2.4169 0 5.66668 0H21.3279C24.5777 0 26.9946 2.94327 26.9946 6.35362V16.6189C27.1303 20.069 24.6862 23 21.4512 23H5.66668C2.4169 23 0 20.0568 0 16.6464V6.35362Z"/>
        <path fill-rule="evenodd" clip-rule="evenodd" d="M5.16736 5.60852C5.51745 5.03198 6.30205 4.82943 6.91981 5.15622L12.9352 8.33795C13.6316 8.68746 14.3683 8.68746 15.0647 8.33795L21.0802 5.15622C21.6979 4.82943 22.4825 5.03198 22.8327 5.60852C23.1827 6.18506 22.9658 6.91736 22.348 7.24415L16.3214 10.4318L16.3008 10.4424C14.8335 11.1859 13.1665 11.1859 11.6992 10.4424L11.6786 10.4318L5.652 7.24415C5.03425 6.91736 4.81726 6.18506 5.16736 5.60852Z"/>
    </symbol>
    <symbol id="shutdown" viewBox="0 0 21 21">
        <path d="M14.3644 6.36613C13.9576 5.95317 13.2458 6.05641 12.9407 6.46938C12.5339 6.88234 12.6356 7.60503 13.0424 7.91476C13.9576 8.63745 14.4661 9.7731 14.4661 11.012C14.4661 13.1801 12.7373 15.0384 10.5 15.0384C8.26272 15.0384 6.5339 13.1801 6.5339 10.9088C6.5339 9.7731 7.04238 8.63745 7.95763 7.81151C8.36441 7.39855 8.46611 6.7791 8.05933 6.36613C7.65255 5.95317 7.04238 5.84993 6.6356 6.26289C5.31357 7.50179 4.5 9.15365 4.5 10.9088C4.5 14.2125 7.14407 17 10.5 17C13.7542 17 16.5 14.3157 16.5 10.9088C16.5 9.15365 15.6864 7.50179 14.3644 6.36613Z"/>
        <path d="M10.5 0C4.725 0 0 4.725 0 10.5C0 16.275 4.725 21 10.5 21C16.275 21 21 16.275 21 10.5C21 4.725 16.275 0 10.5 0ZM10.5 18.9C5.88 18.9 2.1 15.12 2.1 10.5C2.1 5.88 5.88 2.1 10.5 2.1C15.12 2.1 18.9 5.88 18.9 10.5C18.9 15.12 15.12 18.9 10.5 18.9Z"/>
        <path d="M10.5 10C11.1 10 11.5 9.57143 11.5 8.92857V5.07143C11.5 4.42857 11.1 4 10.5 4C9.9 4 9.5 4.42857 9.5 5.07143V9.03571C9.5 9.57143 9.9 10 10.5 10Z"/>
    </symbol>
    <symbol id="shop" viewBox="0 0 27 24">
        <path d="M26.73 4.1105L26.055 2.25414C25.65 0.928177 24.3 0 22.95 0H4.05C2.7 0 1.35 0.928177 0.945 2.25414L0.27 4.1105C-0.27 5.83425 -1.07288e-07 7.55801 1.08 9.01657C1.35 9.54696 1.89 9.94475 2.295 10.3425V18.8287C2.295 21.7459 4.725 24 7.56 24H10.53C11.34 24 11.88 23.4696 11.88 22.674V18.8287C11.88 17.9006 12.555 17.2376 13.5 17.2376C14.445 17.2376 15.12 17.9006 15.12 18.8287V22.674C15.12 23.4696 15.66 24 16.47 24H19.44C22.41 24 24.705 21.6133 24.705 18.8287V14.5856C24.705 13.7901 24.165 13.2597 23.355 13.2597C22.545 13.2597 22.005 13.7901 22.005 14.5856V18.6961C22.005 20.1547 20.79 21.2155 19.44 21.2155H17.82V18.6961C17.82 16.3094 15.93 14.453 13.5 14.453C11.07 14.453 9.18 16.3094 9.18 18.6961V21.2155H7.56C6.075 21.2155 4.995 20.0221 4.995 18.6961V11.2707C5.265 11.2707 5.4 11.2707 5.67 11.2707C7.155 11.2707 8.64 10.6077 9.585 9.54696C10.53 10.7403 12.015 11.4033 13.5 11.4033C14.985 11.4033 16.47 10.7403 17.415 9.67956C18.36 10.7403 19.845 11.4033 21.33 11.4033C23.22 11.4033 24.84 10.6077 25.92 9.14917C27 7.55801 27.27 5.83425 26.73 4.1105ZM23.76 7.55801C23.22 8.35359 22.41 8.75138 21.465 8.75138C20.25 8.75138 19.17 7.9558 18.9 6.89503C18.765 6.23204 18.09 5.83425 17.415 5.83425C16.74 5.83425 16.2 6.23204 15.93 6.89503C15.66 7.9558 14.58 8.75138 13.5 8.75138C12.42 8.75138 11.34 7.9558 11.07 6.89503C10.8 6.23204 10.26 5.83425 9.585 5.83425C8.91 5.83425 8.235 6.23204 8.1 6.89503C7.83 7.9558 6.75 8.75138 5.67 8.75138C4.725 8.75138 3.915 8.35359 3.24 7.55801C2.7 6.76243 2.565 5.83425 2.835 4.90608L3.51 3.04972C3.645 2.78453 3.78 2.65193 4.05 2.65193H22.95C23.22 2.65193 23.49 2.78453 23.49 3.04972L24.165 4.90608C24.435 5.83425 24.3 6.76243 23.76 7.55801Z"/>
    </symbol>
    <symbol id="settings" viewBox="0 0 23 25">
        <path fill-rule="evenodd" clip-rule="evenodd" d="M9 0.999975C10.3823 0.228849 12.6177 0.228849 14 0.999975C14.0104 1.00576 13.9899 0.993867 14 0.999975L21 4.99998C22.4041 5.79108 23 7.44897 23 8.99998V16C23 17.4996 22.3474 19.3013 21 20L14 24C13.9899 24.0061 14.0104 23.9942 14 24C12.6177 24.7711 10.3823 24.7711 9 24C8.98961 23.9942 9.01014 24.0061 9 24L2 20C0.59585 19.2089 0 17.551 0 16V8.99998C0 7.45039 0.598269 5.79153 2 4.99998L9 0.999975C9.01244 0.992367 8.98722 1.0071 9 0.999975ZM10 2.99997L3 6.99998C2.9875 7.00756 3.01278 6.99289 3 6.99998C2.34465 7.36556 2 8.24756 2 8.99998V16C2 16.7524 2.34465 17.6344 3 18C3.01037 18.0057 2.98981 17.9938 3 18L10 22C10.6804 22.3732 12.3196 22.3732 13 22L20 18C20.0244 17.9853 19.9744 18.0127 20 18C20.4662 17.7659 21 16.7943 21 16V8.99998C21 8.24756 20.6553 7.36556 20 6.99998C19.9896 6.99423 20.0101 7.00614 20 6.99998L13 2.99997C12.3206 2.62727 10.6798 2.62847 10 2.99997ZM12 9.99998C10.6663 9.99998 9 11.6607 9 13C9 14.3392 10.6663 15 12 15C13.3337 15 14 14.3392 14 13C14 11.6607 13.3337 9.99998 12 9.99998ZM7 13C7 10.3852 9.39597 7.99998 12 7.99998C14.604 7.99998 16 10.3852 16 13C16 15.6147 14.604 17 12 17C9.39597 17 7 15.6147 7 13Z"/>
    </symbol>
    <symbol id="lines" viewBox="0 0 23 25">
        <path d="M3 25C1.39286 25 0 23.686 0 22V10C0 8.20161 1.39286 7 3 7C4.71429 7 6 8.31401 6 10V22C6 23.686 4.71429 25 3 25ZM3 9C2.46429 9 2 9.5504 2 10V22C2 22.562 2.57143 23 3 23C3.42857 23 4 22.4496 4 22V10C4 9.438 3.53571 9 3 9Z"/>
        <path d="M11 25C9.28571 25 8 23.7347 8 22V11C8 9.14966 9.39286 8 11 8C12.7143 8 14 9.26531 14 11V22C14 23.7347 12.7143 25 11 25ZM11 10C10.4643 10 10 10.5374 10 11V22C10 22.5782 10.5714 23 11 23C11.4286 23 12 22.4626 12 22V11C12 10.4218 11.5357 10 11 10Z"/>
        <path d="M20 25C18.2857 25 17 23.7045 17 22V3C17 1.18182 18.3929 0 20 0C21.6071 0 23 1.29545 23 3V22C23 23.7045 21.6071 25 20 25ZM20 2C19.4643 2 19 2.54545 19 3V22C19 22.5682 19.5714 23 20 23C20.4286 23 21 22.4545 21 22V3C21 2.54545 20.4286 2 20 2Z"/>
    </symbol>
    <symbol id="eye" viewBox="0 0 19 14">
        <path d="M19 7C17.3832 2.87077 14.1311 0 10 0C5.86895 0 1.61689 2.87069 -9.76026e-07 7C-0.0506182 7.12923 -0.0506182 6.87077 -9.76026e-07 7C1.61678 11.1297 5.86887 14 10 14C14.1312 14 17.3833 11.1297 19 7C19.0506 6.87077 19.0506 7.12923 19 7ZM10 13C6.31897 13 2.5079 10.6322 0.999999 7C2.50794 3.36819 6.31908 1 10 1C13.681 1 16.4921 3.36827 18 7C16.4921 10.6322 13.681 13 10 13Z"/>
        <path d="M9 3C7.07007 3 6 4.79441 6 7C6 9.20559 7.07011 11 9 11C10.9299 11 13 9.20564 13 7C13 4.79437 10.9299 3 9 3ZM9 10C7.57403 10 7 8.62968 7 7C7 5.37032 7.57403 4 9 4C10.426 4 12 5.37032 12 7C12 8.62968 10.426 10 9 10Z"/>
        <path d="M9.99999 5C9.11489 5 7.99999 5.67227 7.99999 7C7.99999 7.32698 7.78194 8 7.99999 8C8.21803 8 8.99999 7.32698 8.99999 7C8.99999 6.32525 9.55012 6 9.99999 6C10.218 6 9.99999 6.32698 9.99999 6C9.99999 5.67293 10.218 5 9.99999 5Z"/>
    </symbol>
    <symbol id="comment" viewBox="0 0 16 17">
        <path d="M1 15V3C1 2.13564 2.14089 1 3 1H13C13.8591 1 15 2.13564 15 3V10C15 10.8644 13.8591 12 13 12H5C4.52745 12 4.29521 12.6288 4 13L2 15C1.72443 15.3466 1 15.4439 1 15Z" stroke-width="1.5"/>
    </symbol>
    <symbol id="str" viewBox="0 0 23 14">
        <path d="M2 2L12 11L21 2" stroke-width="3" stroke-linecap="round"/>
    </symbol>
    <symbol id="str-all" viewBox="0 0 21 12">
        <path d="M1 1L11 10L20 1" stroke-width="2" stroke-linecap="round"/>
    </symbol>
    <symbol id="str-more" viewBox="0 0 11 25">
        <path d="M1.76562 23.3672L9.10692 12.3552L1.76562 1.34329" stroke-width="2" stroke-linecap="round"/>
    </symbol>
    <symbol id="plus" viewBox="0 0 19 19">
        <path d="M9 1V18" stroke-width="2" stroke-linecap="round"/>
        <path d="M1 10L18 10" stroke-width="2" stroke-linecap="round"/>
    </symbol>
    <symbol id="plus-circle" viewBox="0 0 30 30">
        <path fill-rule="evenodd" stroke="none" clip-rule="evenodd" d="M15 3C8.3726 3 3 8.3726 3 15C3 21.6274 8.3726 27 15 27C21.6274 27 27 21.6274 27 15C27 8.3726 21.6274 3 15 3ZM0 15C0 6.71573 6.71573 0 15 0C23.2843 0 30 6.71573 30 15C30 23.2843 23.2843 30 15 30C6.71573 30 0 23.2843 0 15Z"/>
        <path d="M8 15H22" stroke-width="3" stroke-linecap="round"/>
        <path d="M15 22V8" stroke-width="3" stroke-linecap="round"/>
    </symbol>
    <symbol id="close-circle" viewBox="0 0 30 30">
        <path fill-rule="evenodd" stroke="none" clip-rule="evenodd" d="M15 3C8.3726 3 3 8.3726 3 15C3 21.6274 8.3726 27 15 27C21.6274 27 27 21.6274 27 15C27 8.3726 21.6274 3 15 3ZM0 15C0 6.71573 6.71573 0 15 0C23.2843 0 30 6.71573 30 15C30 23.2843 23.2843 30 15 30C6.71573 30 0 23.2843 0 15Z"/>
        <path d="M10 20L19.8995 10.1005" stroke-width="3" stroke-linecap="round"/>
        <path d="M20 20L10.1005 10.1005" stroke-width="3" stroke-linecap="round"/>
    </symbol>
    <symbol id="search" viewBox="0 0 25 25">
        <path d="M23.9491 18.8776L21.5287 16.4541C21.0191 15.9439 20.2548 15.9439 19.7453 16.4541C19.2357 16.9642 19.2357 17.7296 19.7453 18.2398L22.1656 20.6632C22.5478 21.0459 22.5478 21.6837 22.1656 22.0663C21.7834 22.449 21.1465 22.449 20.7643 22.0663L16.9427 18.2398C17.1974 17.9847 17.4523 17.8572 17.707 17.602C19.6178 15.6887 20.7643 13.0102 20.7643 10.3317C20.7643 7.5255 19.7453 4.97449 17.707 3.06122C13.6306 -1.02041 7.13375 -1.02041 3.05733 3.06122C-1.01911 7.14283 -1.01911 13.648 3.05733 17.7296C4.96815 19.6428 7.64333 20.7908 10.3185 20.7908C11.8472 20.7908 13.3758 20.4082 14.6497 19.7704L18.8535 23.9796C19.4904 24.6173 20.5096 25 21.4013 25C22.293 25 23.1847 24.6173 23.9491 23.9796C25.3503 22.449 25.3503 20.1531 23.9491 18.8776ZM4.84077 15.6887C1.78344 12.6276 1.78344 7.65308 4.84077 4.71939C6.36942 3.18877 8.28025 2.42347 10.3185 2.42347C12.3567 2.42347 14.2675 3.18877 15.7962 4.71939C17.3248 6.25 18.0892 8.16325 18.0892 10.2041C18.0892 12.2449 17.3248 14.2857 15.7962 15.6887C14.2675 17.0918 12.3567 17.9847 10.3185 17.9847C8.28025 17.9847 6.242 17.2194 4.84077 15.6887Z"/>
    </symbol>
    <symbol id="input-success" viewBox="0 0 25 28">
        <path d="M24.5376 0.257014C24.0444 -0.119586 23.3046 -0.119586 22.8113 0.50808L19.2355 5.0273C17.2627 3.64643 14.9198 2.89322 12.3304 2.89322C5.5487 2.89322 0 8.54229 0 15.4466C0 22.351 5.5487 28 12.3304 28C19.1122 28 24.6609 22.351 24.6609 15.4466C24.6609 12.9359 23.9211 10.6763 22.688 8.66778L21.8249 9.67205L20.9617 10.6763L13.8101 19.8403C13.5635 20.0914 13.1936 20.3424 12.8237 20.3424C12.4537 20.3424 12.2072 20.2169 11.9606 19.9659L6.65841 14.1912C6.2885 13.8147 6.28849 13.187 6.41183 12.8104C6.41183 12.6848 6.53516 12.5594 6.65841 12.4338C7.15166 11.9316 7.89149 11.9316 8.38474 12.4338L12.7003 17.204L19.4821 8.54229L20.2219 7.53794L20.9617 6.53371L24.5376 2.01449C25.1541 1.51236 25.1541 0.759147 24.5376 0.257014Z"/>
    </symbol>
    <symbol id="input-error" viewBox="0 0 25 25">
        <path d="M12.5 0C5.625 0 0 5.625 0 12.5C0 19.375 5.625 25 12.5 25C19.375 25 25 19.375 25 12.5C25 5.625 19.375 0 12.5 0ZM17.5 15.75C18 16.25 18 17 17.5 17.5C17.25 17.75 17 17.875 16.625 17.875C16.25 17.875 16 17.75 15.75 17.5L12.5 14.25L9.25 17.5C9 17.75 8.625 17.875 8.375 17.875C8 17.875 7.75 17.75 7.5 17.5C7 17 7 16.25 7.5 15.75L10.75 12.5L7.5 9.25C7 8.75 7 8 7.5 7.5C8 7 8.75 7 9.25 7.5L12.5 10.75L15.75 7.5C16.25 7 17 7 17.5 7.5C18 8 18 8.75 17.5 9.25L14.25 12.5L17.5 15.75Z"/>
    </symbol>
    <symbol id="input-pass" viewBox="0 0 33 19">
        <path d="M31.2 5.64062C28.2 2.96875 23.25 0 16.5 0C9.75 0 4.8 2.96875 1.8 5.64062C0.6 6.53125 0 8.01562 0 9.5C0 10.9844 0.6 12.4688 1.8 13.3594C4.8 15.8828 9.75 19 16.5 19C23.25 19 28.2 16.0312 31.2 13.3594C32.4 12.4688 33 10.9844 33 9.5C33 8.01562 32.4 6.53125 31.2 5.64062ZM29.25 11.1328C26.7 13.3594 22.35 16.0312 16.5 16.0312C10.65 16.0312 6.3 13.3594 3.75 11.1328C3.3 10.6875 3 10.0938 3 9.5C3 8.90625 3.3 8.3125 3.75 7.86719C6.3 5.64063 10.65 2.96875 16.5 2.96875C22.35 2.96875 26.7 5.64063 29.25 7.86719C29.7 8.16406 30 8.75781 30 9.5C30 10.0938 29.7 10.6875 29.25 11.1328Z"/>
        <path d="M16.5 13C18.433 13 20 11.433 20 9.5C20 7.56699 18.433 6 16.5 6C14.567 6 13 7.56699 13 9.5C13 11.433 14.567 13 16.5 13Z"/>
    </symbol>
    <symbol id="input-file" viewBox="0 0 51 43">
        <path d="M41.6719 42.7378H9.17188C4.42188 42.7378 0.421875 38.9878 0.421875 33.9878V15.7378C0.421875 10.9878 4.17188 7.23779 9.17188 7.23779H12.1719L14.4219 4.23779C15.9219 2.23779 18.4219 0.987793 20.9219 0.987793H29.6719C32.4219 0.987793 34.6719 2.23779 36.4219 4.23779L38.6719 7.23779H41.6719C46.6719 7.23779 50.4219 10.9878 50.4219 15.7378V34.2378C50.4219 38.9878 46.6719 42.7378 41.6719 42.7378ZM9.17188 12.2378C7.17187 12.2378 5.42188 13.7378 5.42188 15.7378V34.2378C5.42188 36.2378 7.17187 37.9878 9.17188 37.9878H41.9219C43.9219 37.9878 45.6719 36.2378 45.6719 34.2378V15.7378C45.6719 13.7378 43.9219 11.9878 41.9219 11.9878H37.9219C37.1719 11.9878 36.4219 11.7378 35.9219 10.9878L32.9219 7.23779C31.9219 6.48779 30.9219 5.98779 29.9219 5.98779H20.9219C19.9219 5.98779 18.9219 6.48779 18.1719 7.23779L15.1719 11.2378C14.6719 11.7378 13.9219 12.2378 13.1719 12.2378H9.17188Z"/>
        <path d="M25.4219 34.7373C19.4219 34.7373 14.6719 29.9873 14.6719 23.9873C14.6719 17.9873 19.4219 13.2373 25.4219 13.2373C31.4219 13.2373 36.1719 17.9873 36.1719 23.9873C36.1719 29.7373 31.4219 34.7373 25.4219 34.7373ZM25.4219 18.2373C22.1719 18.2373 19.6719 20.7373 19.6719 23.9873C19.6719 27.2373 22.1719 29.7373 25.4219 29.7373C28.6719 29.7373 31.1719 27.2373 31.1719 23.9873C31.1719 20.7373 28.6719 18.2373 25.4219 18.2373Z"/>
    </symbol>
    <symbol id="star" viewBox="0 0 17 18">
        <path d="M5.23057 17.3332C4.82922 17.3332 4.42781 17.1665 4.02642 16.9165C3.38419 16.4165 2.9828 15.5832 3.14336 14.7498L3.62503 11.4998L1.45752 9.1665C0.895582 8.58317 0.654744 7.6665 0.975858 6.83317C1.21669 5.99984 1.85891 5.49984 2.66169 5.33317L5.71225 4.83317L7.07698 1.9165C7.3981 1.1665 8.12058 0.666504 8.92334 0.666504C9.72615 0.666504 10.4486 1.1665 10.85 1.9165L12.1345 4.83317L15.1048 5.33317C15.9075 5.4165 16.5498 5.99984 16.7906 6.83317C17.0314 7.6665 16.8708 8.49984 16.3089 9.1665L14.1414 11.4998L14.6231 14.7498C14.7836 15.5832 14.4625 16.4998 13.74 16.9165C13.0978 17.4165 12.295 17.4165 11.5725 17.0832L8.92334 15.4998L6.27417 16.9998C5.9531 17.2498 5.63197 17.3332 5.23057 17.3332Z"/>
    </symbol>
    <symbol id="heart" viewBox="0 0 30 26">
        <path d="M21.4286 0C18.8571 0 16.5714 1.16201 15 3.05028C13.4286 1.16201 11 0 8.4286 0C3.85714 0 0 3.92179 0 8.5698C0 8.86029 0 9.15088 0 9.44137C0.57143 16.5586 8 22.514 12.4286 25.2737C13.1429 25.7095 14 26 15 26C15.8571 26 16.7143 25.7095 17.5714 25.2737C22 22.3687 29.4286 16.5586 30 9.44137C30 9.15088 30 8.86029 30 8.5698C30 3.92179 26.1429 0 21.4286 0Z"/>
    </symbol>
    <symbol id="open-wall" viewBox="0 0 17 8">
        <path d="M1 1L8.50003 6L16 1" stroke-width="2" stroke-linecap="round"/>
    </symbol>
    <symbol id="lock" viewBox="0 0 108 120">
        <path d="M85.9227 38.806H83.5359V30.4478C84.1326 13.7313 70.4088 0 53.7017 0C36.9945 0 23.2707 13.7313 23.2707 30.4478V39.403H21.4807C9.54696 39.403 0 48.9552 0 60.8955V98.5075C0 110.448 9.54696 120 21.4807 120H86.5193C98.453 120 108 110.448 108 98.5075V60.8955C107.403 48.3582 97.8564 38.806 85.9227 38.806ZM35.2044 30.4478C35.2044 20.2985 43.558 11.9403 53.7017 11.9403C63.8453 11.9403 72.1989 20.2985 72.1989 30.4478V39.403H35.2044V30.4478ZM96.663 97.9104C96.663 103.284 91.2928 107.463 85.9227 107.463H21.4807C16.1105 107.463 11.9337 103.284 11.9337 97.9104V60.2985C11.9337 54.9254 16.1105 50.7463 21.4807 50.7463H29.8343H78.7624H87.116C92.4862 50.7463 96.663 54.9254 96.663 60.2985V97.9104Z"/>
        <path d="M54 78C50.4 78 48 80.3333 48 83.8333V93.1667C48 96.6667 50.4 99 54 99C57.6 99 60 96.6667 60 93.1667V83.8333C60 80.3333 57.6 78 54 78Z"/>
    </symbol>
</svg>