<svg width="21" height="17" viewBox="0 0 21 17" fill="none" xmlns="http://www.w3.org/2000/svg">
<path d="M15.4163 2.52173C15.4163 3.56824 15.6675 8.22871 18.3419 8.22871H9.84888C9.84888 8.22871 15.0861 5.87987 15.0861 2.52173H15.4163Z" fill="url(#paint0_linear_44_1657)"/>
<path d="M14.9705 3.39615C15.0588 3.4287 15.1519 3.45196 15.2495 3.45196C15.3193 3.45196 15.3891 3.44266 15.4542 3.42405C15.4216 3.03336 15.4123 2.71708 15.4123 2.52173H15.0867C15.0914 2.8194 15.0495 3.11243 14.9705 3.39615Z" fill="url(#paint1_linear_44_1657)"/>
<path d="M15.2535 3.28928C15.6774 3.28928 16.021 2.94568 16.021 2.52184C16.021 2.09799 15.6774 1.75439 15.2535 1.75439C14.8297 1.75439 14.4861 2.09799 14.4861 2.52184C14.4861 2.94568 14.8297 3.28928 15.2535 3.28928Z" fill="url(#paint2_radial_44_1657)"/>
<path d="M15.4535 3.42415C15.4489 3.36834 15.4442 3.31717 15.4442 3.26601C15.7745 3.18229 16.021 2.87996 16.021 2.52648C16.021 2.10322 15.6768 1.75903 15.2535 1.75903C14.8303 1.75903 14.4861 2.10322 14.4861 2.52648C14.4861 2.86601 14.7047 3.14973 15.007 3.25206C15.007 3.26136 15.0024 3.27066 15.0024 3.27996C15.0024 3.28927 14.9977 3.29857 14.9977 3.30787C14.4163 5.71717 11.3233 7.49392 10.2349 8.04741C9.14655 7.48927 6.04887 5.71717 5.47213 3.30787C5.47213 3.29857 5.46748 3.28927 5.46748 3.27996C5.46748 3.27066 5.46283 3.26136 5.46283 3.25206C5.76515 3.14973 5.98376 2.86601 5.98376 2.52648C5.98376 2.10322 5.63957 1.75903 5.21631 1.75903C4.79306 1.75903 4.44887 2.10322 4.44887 2.52648C4.44887 2.88461 4.69538 3.18229 5.02562 3.26601C5.02097 3.31717 5.01631 3.37299 5.01166 3.42415C4.87678 5.13578 4.30469 8.2288 2.12329 8.2288H9.85352H10.6117H18.3419C16.1605 8.2288 15.5931 5.13578 15.4535 3.42415Z" fill="url(#paint3_linear_44_1657)"/>
<path d="M5.04423 2.52173C5.04423 3.56824 4.79307 8.22871 2.11865 8.22871H10.607C10.607 8.22871 5.36982 5.87987 5.36982 2.52173H5.04423Z" fill="url(#paint4_linear_44_1657)"/>
<path d="M10.2305 16.373C5.14217 16.373 1.02124 15.7869 1.02124 15.0613V6.58691C1.02124 7.3125 5.14682 8.43808 10.2305 8.43808C15.3189 8.43808 19.4398 7.30784 19.4398 6.58691V15.0613C19.4398 15.7823 15.3189 16.373 10.2305 16.373Z" fill="url(#paint5_linear_44_1657)"/>
<path d="M10.5003 1.80078C10.7887 2.95427 12.9468 7.75892 15.9003 7.75892C18.8538 7.75892 19.1608 3.21008 19.1608 3.21008H19.4398V12.2845L10.2305 13.2612L1.02124 12.2845V3.20543H1.30031C1.30031 3.20543 1.61194 7.75427 4.56078 7.75427C7.50961 7.75427 9.66775 2.95427 9.96078 1.80078H10.5003Z" fill="url(#paint6_linear_44_1657)"/>
<path d="M19.4398 14.201V11.001C19.4398 11.001 18.998 11.4103 16.5143 11.7731C14.8073 12.0196 12.5794 12.1591 10.2305 12.1591C7.88171 12.1591 5.64915 12.0242 3.94682 11.7731C1.4631 11.4149 1.02124 11.001 1.02124 11.001V14.201C1.34682 14.4707 2.08171 14.7545 3.68636 15.001C5.43519 15.2707 7.76078 15.4196 10.2352 15.4196C12.7096 15.4196 15.0305 15.2707 16.784 15.001C18.384 14.7545 19.1143 14.4707 19.4398 14.201Z" fill="url(#paint7_linear_44_1657)"/>
<path d="M19.44 9.15906C19.44 9.15906 18.9981 9.5358 16.5144 9.87068C14.8075 10.0986 12.5795 10.2242 10.2307 10.2242C7.88187 10.2242 5.64931 10.0986 3.94698 9.87068C1.46326 9.54045 1.0214 9.15906 1.0214 9.15906H0.779541V13.5172C0.779541 13.8707 1.10977 14.3172 3.68652 14.6846C5.43536 14.9358 7.76094 15.0707 10.2354 15.0707C12.7098 15.0707 15.0307 14.9358 16.7842 14.6846C19.3609 14.3172 19.6912 13.866 19.6912 13.5172V9.15906H19.44Z" fill="url(#paint8_linear_44_1657)"/>
<path d="M3.77024 10.0009C5.52373 10.2381 7.81675 10.4195 10.2307 10.4195C12.6447 10.4195 14.9377 10.2381 16.6912 10.0009C19.0214 9.68929 19.6028 9.24743 19.6865 9.17301V9.16371H19.44C19.44 9.16371 18.9981 9.54045 16.5144 9.87533C14.8075 10.1032 12.5795 10.2288 10.2307 10.2288C7.88187 10.2288 5.64931 10.1032 3.94698 9.87533C1.46326 9.54045 1.0214 9.15906 1.0214 9.15906H0.779541V9.16836C0.858611 9.24743 1.44001 9.68929 3.77024 10.0009Z" fill="url(#paint9_linear_44_1657)"/>
<path d="M10.2677 15.0427C10.0863 15.0427 9.90953 14.9823 9.76535 14.8613C9.74209 14.8427 9.72349 14.8241 9.70488 14.8055L8.50488 13.6102L7.91884 14.1962C7.70023 14.4148 7.35605 14.4334 7.11419 14.2381C7.10023 14.2241 7.08163 14.2102 7.06768 14.1962L6.09093 13.2102C6.00721 13.1265 5.94675 13.0195 5.92349 12.8985C5.91884 12.8799 5.91884 12.8613 5.91419 12.8427C5.90954 12.7869 5.90954 12.7358 5.91884 12.6799C5.91884 12.6706 5.92349 12.6613 5.92349 12.652C5.93744 12.6009 5.9514 12.5497 5.9793 12.5078C6.00721 12.452 6.04442 12.4055 6.08628 12.3637L7.06768 11.3823C7.1793 11.2706 7.33279 11.2055 7.49093 11.2055C7.65372 11.2055 7.80256 11.266 7.91419 11.3823L8.50023 11.9683L9.70023 10.773C9.84907 10.6241 10.0537 10.5404 10.2677 10.5404C10.4816 10.5404 10.6816 10.6241 10.8351 10.773L12.0305 11.9683L12.6165 11.3823C12.8491 11.1497 13.2305 11.1497 13.4677 11.3823L14.4491 12.3637C14.5235 12.4381 14.5793 12.5311 14.6072 12.6381C14.6165 12.666 14.6212 12.6939 14.6212 12.7265V12.7404C14.6258 12.7776 14.6258 12.8148 14.6212 12.852C14.6212 12.8706 14.6165 12.8892 14.6119 12.9078C14.6026 12.959 14.584 13.0148 14.5607 13.0613L14.556 13.0706C14.5281 13.1218 14.4909 13.173 14.4491 13.2148L13.4677 14.1962C13.4537 14.2102 13.4398 14.2241 13.4212 14.2381C13.2351 14.3916 12.9746 14.4148 12.7607 14.3032C12.756 14.2985 12.7514 14.2985 12.7421 14.2939C12.6956 14.266 12.6537 14.2334 12.6165 14.1962L12.0305 13.6102L10.8351 14.8055C10.8212 14.8195 10.8072 14.8288 10.7933 14.8427C10.77 14.8613 10.7467 14.8799 10.7235 14.8939C10.7188 14.8985 10.7142 14.9032 10.7095 14.9032C10.5747 14.9962 10.4212 15.0427 10.2677 15.0427Z" fill="url(#paint10_linear_44_1657)"/>
<path d="M12.7512 14.0613L11.7698 13.0799C11.607 12.9171 11.607 12.6566 11.7698 12.4985L12.7512 11.5171C12.914 11.3543 13.1745 11.3543 13.3326 11.5171L14.314 12.4985C14.4768 12.6613 14.4768 12.9218 14.314 13.0799L13.3326 14.0613C13.1698 14.2194 12.9093 14.2194 12.7512 14.0613Z" fill="url(#paint11_linear_44_1657)"/>
<path d="M11.7696 13.0798L12.751 14.0612C12.9137 14.224 13.1742 14.224 13.3323 14.0612L14.3137 13.0798C14.4765 12.917 14.4765 12.6566 14.3137 12.4984C13.6765 12.9821 12.8207 13.0519 12.1137 12.6798L11.7696 12.4984C11.6068 12.6566 11.6068 12.917 11.7696 13.0798Z" fill="url(#paint12_linear_44_1657)"/>
<path d="M13.0391 13.903L12.174 13.0379C12.0345 12.8983 12.0345 12.6704 12.174 12.5309L13.0391 11.6658L13.9042 12.5309C14.0438 12.6704 14.0438 12.8983 13.9042 13.0379L13.0391 13.903Z" fill="url(#paint13_linear_44_1657)"/>
<path d="M13.0391 13.9032C14.1507 12.7916 11.9228 12.7869 13.0391 11.6707L12.174 12.5358C12.0345 12.6753 12.0345 12.9032 12.174 13.0427L13.0391 13.9032Z" fill="url(#paint14_linear_44_1657)"/>
<path d="M13.9047 13.0379L13.5977 13.3448L13.9047 13.0379C14.0442 12.8983 14.0442 12.6704 13.9047 12.5309L13.0396 11.6658V11.9914C13.0396 12.503 13.2442 12.9402 13.9047 13.0379Z" fill="url(#paint15_linear_44_1657)"/>
<path d="M13.0207 12.8195C12.6393 12.6706 12.3835 12.3125 12.3603 11.9032L11.7696 12.4939C11.6068 12.6567 11.6068 12.9172 11.7696 13.0753L12.7509 14.0567C12.9137 14.2195 13.1742 14.2195 13.3323 14.0567L13.6812 13.7079C13.6486 13.3125 13.3928 12.9683 13.0207 12.8195Z" fill="url(#paint16_linear_44_1657)"/>
<path d="M7.78938 14.0611L8.77077 13.0797C8.93356 12.9169 8.93356 12.6564 8.77077 12.4983L7.78938 11.5169C7.62659 11.3541 7.36612 11.3541 7.20798 11.5169L6.22659 12.4936C6.06379 12.6564 6.06379 12.9169 6.22659 13.075L7.20798 14.0564C7.36612 14.2192 7.62659 14.2192 7.78938 14.0611Z" fill="url(#paint17_linear_44_1657)"/>
<path d="M8.77077 13.0797L7.78938 14.0611C7.62658 14.2239 7.36612 14.2239 7.20798 14.0611L6.22659 13.0797C6.06379 12.9169 6.06379 12.6564 6.22659 12.4983C6.86379 12.982 7.71961 13.0518 8.42658 12.6797L8.77077 12.4983C8.92891 12.6564 8.92891 12.9169 8.77077 13.0797Z" fill="url(#paint18_linear_44_1657)"/>
<path d="M7.49613 13.9029L8.36125 13.0377C8.50079 12.8982 8.50079 12.6703 8.36125 12.5308L7.49613 11.6656L6.63102 12.5308C6.49148 12.6703 6.49148 12.8982 6.63102 13.0377L7.49613 13.9029Z" fill="url(#paint19_linear_44_1657)"/>
<path d="M7.49643 13.9032C6.38481 12.7916 8.61271 12.7869 7.49643 11.6707L8.36155 12.5358C8.50108 12.6753 8.50108 12.9032 8.36155 13.0427L7.49643 13.9032Z" fill="url(#paint20_linear_44_1657)"/>
<path d="M6.63102 13.0377L6.93799 13.3447L6.63102 13.0377C6.49148 12.8982 6.49148 12.6703 6.63102 12.5308L7.49613 11.6656V11.9912C7.49613 12.5029 7.29613 12.9401 6.63102 13.0377Z" fill="url(#paint21_linear_44_1657)"/>
<path d="M7.51984 12.8194C7.90124 12.6705 8.15705 12.3124 8.1803 11.9031L8.771 12.4938C8.93379 12.6566 8.93379 12.917 8.771 13.0752L7.78961 14.0566C7.62682 14.2194 7.36635 14.2194 7.20821 14.0566L6.85938 13.7077C6.88728 13.3124 7.1431 12.9682 7.51984 12.8194Z" fill="url(#paint22_linear_44_1657)"/>
<path d="M10.6998 14.675L12.1556 13.2192C12.3928 12.982 12.3928 12.5959 12.1556 12.3587L10.6998 10.9029C10.4625 10.6657 10.0765 10.6657 9.83929 10.9029L8.38347 12.354C8.14626 12.5913 8.14626 12.9773 8.38347 13.2145L9.83929 14.6703C10.0765 14.9122 10.4625 14.9122 10.6998 14.675Z" fill="url(#paint23_linear_44_1657)"/>
<path d="M12.1556 13.2194L10.6998 14.6752C10.4625 14.9124 10.0765 14.9124 9.83929 14.6752L8.38347 13.2194C8.14626 12.9821 8.14626 12.5961 8.38347 12.3589C9.32766 13.0752 10.5974 13.1775 11.6439 12.6287L12.1556 12.3589C12.3928 12.5961 12.3928 12.9821 12.1556 13.2194Z" fill="url(#paint24_linear_44_1657)"/>
<path d="M10.2675 14.4424L11.5466 13.1633C11.7512 12.9586 11.7512 12.6191 11.5466 12.4144L10.2675 11.1354L8.98845 12.4144C8.7838 12.6191 8.7838 12.9586 8.98845 13.1633L10.2675 14.4424Z" fill="url(#paint25_linear_44_1657)"/>
<path d="M10.2672 14.4424C8.61601 12.7912 11.923 12.7866 10.2672 11.1307L11.5462 12.4098C11.7509 12.6145 11.7509 12.954 11.5462 13.1586L10.2672 14.4424Z" fill="url(#paint26_linear_44_1657)"/>
<path d="M8.98845 13.1633L9.43961 13.6144L8.98845 13.1633C8.7838 12.9586 8.7838 12.6191 8.98845 12.4144L10.2675 11.1354V11.6191C10.2675 12.3633 9.96985 13.0144 8.98845 13.1633Z" fill="url(#paint27_linear_44_1657)"/>
<path d="M10.3 12.8377C10.8628 12.6191 11.2488 12.0889 11.2814 11.4843L12.1558 12.3587C12.393 12.5959 12.393 12.9819 12.1558 13.2191L10.7 14.675C10.4628 14.9122 10.0767 14.9122 9.83952 14.675L9.32324 14.1587C9.3651 13.568 9.7465 13.0517 10.3 12.8377Z" fill="url(#paint28_linear_44_1657)"/>
<path d="M18.9929 4.28464C19.0906 4.31719 19.165 4.3265 19.272 4.3265C19.3278 4.3265 19.3836 4.32184 19.4394 4.31254V3.20557H19.1604C19.165 3.20557 19.1418 3.66138 18.9929 4.28464Z" fill="url(#paint29_linear_44_1657)"/>
<path d="M5.00732 3.42405C5.07244 3.44266 5.13756 3.45196 5.21198 3.45196C5.30965 3.45196 5.40732 3.43336 5.49105 3.39615C5.41663 3.11243 5.37477 2.8194 5.37477 2.52173H5.04918C5.04453 2.71708 5.03523 3.03336 5.00732 3.42405Z" fill="url(#paint30_linear_44_1657)"/>
<path d="M1.02124 4.31254C1.07705 4.32184 1.13287 4.3265 1.18868 4.3265C1.29566 4.3265 1.36543 4.30789 1.4631 4.27533C1.32357 3.65208 1.30031 3.20557 1.30031 3.20557H1.02124V4.31254Z" fill="url(#paint31_linear_44_1657)"/>
<path d="M10.231 2.97762C10.9425 2.97762 11.5194 2.4008 11.5194 1.68925C11.5194 0.977703 10.9425 0.400879 10.231 0.400879C9.51945 0.400879 8.94263 0.977703 8.94263 1.68925C8.94263 2.4008 9.51945 2.97762 10.231 2.97762Z" fill="url(#paint32_radial_44_1657)"/>
<path d="M19.2726 4.16372C19.8018 4.16372 20.2307 3.73474 20.2307 3.20558C20.2307 2.67641 19.8018 2.24744 19.2726 2.24744C18.7434 2.24744 18.3145 2.67641 18.3145 3.20558C18.3145 3.73474 18.7434 4.16372 19.2726 4.16372Z" fill="url(#paint33_radial_44_1657)"/>
<path d="M5.20689 3.28928C5.63074 3.28928 5.97434 2.94568 5.97434 2.52184C5.97434 2.09799 5.63074 1.75439 5.20689 1.75439C4.78305 1.75439 4.43945 2.09799 4.43945 2.52184C4.43945 2.94568 4.78305 3.28928 5.20689 3.28928Z" fill="url(#paint34_radial_44_1657)"/>
<path d="M1.18861 4.16372C1.71777 4.16372 2.14675 3.73474 2.14675 3.20558C2.14675 2.67641 1.71777 2.24744 1.18861 2.24744C0.659442 2.24744 0.230469 2.67641 0.230469 3.20558C0.230469 3.73474 0.659442 4.16372 1.18861 4.16372Z" fill="url(#paint35_radial_44_1657)"/>
<defs>
<linearGradient id="paint0_linear_44_1657" x1="14.0959" y1="2.95482" x2="14.0959" y2="20.7697" gradientUnits="userSpaceOnUse">
<stop stop-color="#A3541E"/>
<stop offset="0.5525" stop-color="#FCCE38"/>
<stop offset="0.9996" stop-color="#FF9D00"/>
</linearGradient>
<linearGradient id="paint1_linear_44_1657" x1="15.2139" y1="3.62761" x2="15.2139" y2="5.76313" gradientUnits="userSpaceOnUse">
<stop stop-color="#A3541E"/>
<stop offset="0.5525" stop-color="#FCCE38"/>
<stop offset="0.9996" stop-color="#FF9D00"/>
</linearGradient>
<radialGradient id="paint2_radial_44_1657" cx="0" cy="0" r="1" gradientUnits="userSpaceOnUse" gradientTransform="translate(15.0647 2.27335) scale(1.12339)">
<stop stop-color="#FCCE38"/>
<stop offset="0.1981" stop-color="#FCCB35"/>
<stop offset="0.3593" stop-color="#FDC22B"/>
<stop offset="0.5076" stop-color="#FEB31A"/>
<stop offset="0.6473" stop-color="#FF9F02"/>
<stop offset="0.6561" stop-color="#FF9D00"/>
<stop offset="1" stop-color="#A3541E"/>
</radialGradient>
<linearGradient id="paint3_linear_44_1657" x1="10.2303" y1="13.0694" x2="10.2303" y2="-0.0719301" gradientUnits="userSpaceOnUse">
<stop stop-color="#3C2200"/>
<stop offset="0.9996" stop-color="#975500" stop-opacity="0"/>
</linearGradient>
<linearGradient id="paint4_linear_44_1657" x1="6.36465" y1="2.95482" x2="6.36465" y2="20.7697" gradientUnits="userSpaceOnUse">
<stop stop-color="#A3541E"/>
<stop offset="0.5525" stop-color="#FCCE38"/>
<stop offset="0.9996" stop-color="#FF9D00"/>
</linearGradient>
<linearGradient id="paint5_linear_44_1657" x1="19.2343" y1="9.938" x2="-4.2547" y2="12.9994" gradientUnits="userSpaceOnUse">
<stop stop-color="#A3541E"/>
<stop offset="0.5525" stop-color="#FCCE38"/>
<stop offset="0.9996" stop-color="#FF9D00"/>
</linearGradient>
<linearGradient id="paint6_linear_44_1657" x1="20.9943" y1="7.52907" x2="-0.934299" y2="7.52907" gradientUnits="userSpaceOnUse">
<stop stop-color="#A3541E"/>
<stop offset="0.5525" stop-color="#FCCE38"/>
<stop offset="0.9996" stop-color="#FF9D00"/>
</linearGradient>
<linearGradient id="paint7_linear_44_1657" x1="10.1878" y1="13.6268" x2="10.0794" y2="16.2277" gradientUnits="userSpaceOnUse">
<stop stop-color="#A3541E"/>
<stop offset="0.9996" stop-color="#FF9D00" stop-opacity="0"/>
</linearGradient>
<linearGradient id="paint8_linear_44_1657" x1="24.4081" y1="12.1151" x2="0.105127" y2="12.1151" gradientUnits="userSpaceOnUse">
<stop stop-color="#A3541E"/>
<stop offset="0.6458" stop-color="#FCCE38"/>
<stop offset="0.9996" stop-color="#FF9D00"/>
</linearGradient>
<linearGradient id="paint9_linear_44_1657" x1="10.4639" y1="9.02817" x2="3.76306" y2="13.1281" gradientUnits="userSpaceOnUse">
<stop stop-color="#A3541E"/>
<stop offset="0.5525" stop-color="#FCCE38"/>
<stop offset="0.9996" stop-color="#FF9D00"/>
</linearGradient>
<linearGradient id="paint10_linear_44_1657" x1="10.2686" y1="10.8478" x2="10.2686" y2="16.5954" gradientUnits="userSpaceOnUse">
<stop stop-color="#A3541E"/>
<stop offset="0.1326" stop-color="#B46C23"/>
<stop offset="0.4029" stop-color="#D3962C"/>
<stop offset="0.6472" stop-color="#E9B533"/>
<stop offset="0.8545" stop-color="#F7C737"/>
<stop offset="1" stop-color="#FCCE38"/>
</linearGradient>
<linearGradient id="paint11_linear_44_1657" x1="11.9928" y1="11.2213" x2="14.3277" y2="14.7095" gradientUnits="userSpaceOnUse">
<stop stop-color="#E74839"/>
<stop offset="0.9996" stop-color="#860805"/>
</linearGradient>
<linearGradient id="paint12_linear_44_1657" x1="13.0407" y1="14.1626" x2="13.0407" y2="12.208" gradientUnits="userSpaceOnUse">
<stop stop-color="#E74839"/>
<stop offset="0.9996" stop-color="#860805"/>
</linearGradient>
<linearGradient id="paint13_linear_44_1657" x1="13.0404" y1="10.4193" x2="13.0405" y2="14.9696" gradientUnits="userSpaceOnUse">
<stop stop-color="#E74839"/>
<stop offset="0.9996" stop-color="#FF0000"/>
</linearGradient>
<linearGradient id="paint14_linear_44_1657" x1="12.7165" y1="10.4642" x2="12.7166" y2="15.0804" gradientUnits="userSpaceOnUse">
<stop stop-color="#E74839"/>
<stop offset="0.9996" stop-color="#860805"/>
</linearGradient>
<linearGradient id="paint15_linear_44_1657" x1="13.3324" y1="12.6186" x2="14.2928" y2="10.9099" gradientUnits="userSpaceOnUse">
<stop stop-color="white" stop-opacity="0"/>
<stop offset="0.9996" stop-color="white"/>
</linearGradient>
<linearGradient id="paint16_linear_44_1657" x1="12.7827" y1="13.0387" x2="13.9777" y2="11.9777" gradientUnits="userSpaceOnUse">
<stop stop-color="white" stop-opacity="0"/>
<stop offset="0.9996" stop-color="white"/>
</linearGradient>
<linearGradient id="paint17_linear_44_1657" x1="8.54532" y1="11.2209" x2="6.21049" y2="14.7091" gradientUnits="userSpaceOnUse">
<stop stop-color="#00CC00"/>
<stop offset="0.9996" stop-color="#366E0D"/>
</linearGradient>
<linearGradient id="paint18_linear_44_1657" x1="7.49723" y1="14.1623" x2="7.49723" y2="12.2077" gradientUnits="userSpaceOnUse">
<stop stop-color="#00CC00"/>
<stop offset="0.9996" stop-color="#366E0D"/>
</linearGradient>
<linearGradient id="paint19_linear_44_1657" x1="7.49701" y1="10.419" x2="7.49701" y2="14.9693" gradientUnits="userSpaceOnUse">
<stop stop-color="#00CC00"/>
<stop offset="0.9996" stop-color="#4B8C1C"/>
</linearGradient>
<linearGradient id="paint20_linear_44_1657" x1="7.82123" y1="10.4641" x2="7.82123" y2="15.0803" gradientUnits="userSpaceOnUse">
<stop stop-color="#00CC00"/>
<stop offset="0.9996" stop-color="#366E0D"/>
</linearGradient>
<linearGradient id="paint21_linear_44_1657" x1="7.20551" y1="12.6183" x2="6.24504" y2="10.9096" gradientUnits="userSpaceOnUse">
<stop stop-color="white" stop-opacity="0"/>
<stop offset="0.9996" stop-color="white"/>
</linearGradient>
<linearGradient id="paint22_linear_44_1657" x1="7.75544" y1="13.0384" x2="6.56048" y2="11.9775" gradientUnits="userSpaceOnUse">
<stop stop-color="white" stop-opacity="0"/>
<stop offset="0.9996" stop-color="white"/>
</linearGradient>
<linearGradient id="paint23_linear_44_1657" x1="11.8216" y1="10.4659" x2="8.36091" y2="15.636" gradientUnits="userSpaceOnUse">
<stop stop-color="#0099D6"/>
<stop offset="0.9996" stop-color="#B0E9FF"/>
</linearGradient>
<linearGradient id="paint24_linear_44_1657" x1="10.2681" y1="14.8257" x2="10.2681" y2="11.9286" gradientUnits="userSpaceOnUse">
<stop stop-color="#0099D6"/>
<stop offset="0.9996" stop-color="#B0E9FF"/>
</linearGradient>
<linearGradient id="paint25_linear_44_1657" x1="10.2684" y1="9.27738" x2="10.2684" y2="16.0217" gradientUnits="userSpaceOnUse">
<stop stop-color="#0099D6"/>
<stop offset="0.9996" stop-color="#D1F2FF"/>
</linearGradient>
<linearGradient id="paint26_linear_44_1657" x1="10.7482" y1="9.3436" x2="10.7482" y2="16.1856" gradientUnits="userSpaceOnUse">
<stop stop-color="#0099D6"/>
<stop offset="0.9996" stop-color="#B0E9FF"/>
</linearGradient>
<linearGradient id="paint27_linear_44_1657" x1="9.83637" y1="12.5371" x2="8.41282" y2="10.0045" gradientUnits="userSpaceOnUse">
<stop stop-color="white" stop-opacity="0"/>
<stop offset="0.9996" stop-color="white"/>
</linearGradient>
<linearGradient id="paint28_linear_44_1657" x1="10.6507" y1="13.1594" x2="8.87951" y2="11.5869" gradientUnits="userSpaceOnUse">
<stop stop-color="white" stop-opacity="0"/>
<stop offset="0.9996" stop-color="white"/>
</linearGradient>
<linearGradient id="paint29_linear_44_1657" x1="19.2967" y1="4.30043" x2="19.5541" y2="6.10206" gradientUnits="userSpaceOnUse">
<stop stop-color="#A3541E"/>
<stop offset="0.5525" stop-color="#FCCE38"/>
<stop offset="0.9996" stop-color="#FF9D00"/>
</linearGradient>
<linearGradient id="paint30_linear_44_1657" x1="5.24758" y1="3.62761" x2="5.24758" y2="5.76313" gradientUnits="userSpaceOnUse">
<stop stop-color="#A3541E"/>
<stop offset="0.5525" stop-color="#FCCE38"/>
<stop offset="0.9996" stop-color="#FF9D00"/>
</linearGradient>
<linearGradient id="paint31_linear_44_1657" x1="1.25971" y1="3.48985" x2="1.13779" y2="5.12893" gradientUnits="userSpaceOnUse">
<stop stop-color="#A3541E"/>
<stop offset="0.9996" stop-color="#FF9D00" stop-opacity="0"/>
</linearGradient>
<radialGradient id="paint32_radial_44_1657" cx="0" cy="0" r="1" gradientUnits="userSpaceOnUse" gradientTransform="translate(9.91563 1.28164) scale(1.89065 1.89066)">
<stop stop-color="#FCCE38"/>
<stop offset="0.1981" stop-color="#FCCB35"/>
<stop offset="0.3593" stop-color="#FDC22B"/>
<stop offset="0.5076" stop-color="#FEB31A"/>
<stop offset="0.6473" stop-color="#FF9F02"/>
<stop offset="0.6561" stop-color="#FF9D00"/>
<stop offset="1" stop-color="#A3541E"/>
</radialGradient>
<radialGradient id="paint33_radial_44_1657" cx="0" cy="0" r="1" gradientUnits="userSpaceOnUse" gradientTransform="translate(19.0384 2.91132) scale(1.40405 1.40406)">
<stop stop-color="#FCCE38"/>
<stop offset="0.1981" stop-color="#FCCB35"/>
<stop offset="0.3593" stop-color="#FDC22B"/>
<stop offset="0.5076" stop-color="#FEB31A"/>
<stop offset="0.6473" stop-color="#FF9F02"/>
<stop offset="0.6561" stop-color="#FF9D00"/>
<stop offset="1" stop-color="#A3541E"/>
</radialGradient>
<radialGradient id="paint34_radial_44_1657" cx="0" cy="0" r="1" gradientUnits="userSpaceOnUse" gradientTransform="translate(5.02019 2.27335) scale(1.12339)">
<stop stop-color="#FCCE38"/>
<stop offset="0.1981" stop-color="#FCCB35"/>
<stop offset="0.3593" stop-color="#FDC22B"/>
<stop offset="0.5076" stop-color="#FEB31A"/>
<stop offset="0.6473" stop-color="#FF9F02"/>
<stop offset="0.6561" stop-color="#FF9D00"/>
<stop offset="1" stop-color="#A3541E"/>
</radialGradient>
<radialGradient id="paint35_radial_44_1657" cx="0" cy="0" r="1" gradientUnits="userSpaceOnUse" gradientTransform="translate(0.955099 2.91132) scale(1.40405 1.40406)">
<stop stop-color="#FCCE38"/>
<stop offset="0.1981" stop-color="#FCCB35"/>
<stop offset="0.3593" stop-color="#FDC22B"/>
<stop offset="0.5076" stop-color="#FEB31A"/>
<stop offset="0.6473" stop-color="#FF9F02"/>
<stop offset="0.6561" stop-color="#FF9D00"/>
<stop offset="1" stop-color="#A3541E"/>
</radialGradient>
</defs>
</svg>
